<?xml version="1.0" encoding="UTF-8"?>
<!DOCTYPE svg PUBLIC "-//W3C//DTD SVG 1.1//EN" "http://www.w3.org/Graphics/SVG/1.1/DTD/svg11.dtd">
<svg xmlns="http://www.w3.org/2000/svg" version="1.1" width="480px" height="121px" style="shape-rendering:geometricPrecision; text-rendering:geometricPrecision; image-rendering:optimizeQuality; fill-rule:evenodd; clip-rule:evenodd" xmlns:xlink="http://www.w3.org/1999/xlink">
<g><path style="opacity:0.025" fill="#f8eded" d="M 181.5,9.5 C 176.347,8.38138 171.347,8.38138 166.5,9.5C 165.167,9.5 163.833,9.5 162.5,9.5C 165.356,7.99421 168.523,7.32755 172,7.5C 175.477,7.32755 178.644,7.99421 181.5,9.5 Z"/></g>
<g><path style="opacity:0.996" fill="#ca514a" d="M 166.5,9.5 C 171.347,8.38138 176.347,8.38138 181.5,9.5C 184.795,11.1473 188.128,12.8139 191.5,14.5C 192.08,16.7488 193.413,18.4154 195.5,19.5C 196.952,21.8476 197.618,24.5143 197.5,27.5C 197.493,29.3693 197.16,31.036 196.5,32.5C 196.167,32.5 195.833,32.5 195.5,32.5C 195.824,28.4454 195.491,24.4454 194.5,20.5C 193.702,20.9569 193.369,21.6236 193.5,22.5C 191.786,19.7872 189.453,17.7872 186.5,16.5C 186.027,15.0937 185.027,14.427 183.5,14.5C 181.044,12.1324 178.044,11.1324 174.5,11.5C 174.611,10.8826 174.944,10.3826 175.5,10C 172.518,9.50204 169.518,9.33537 166.5,9.5 Z"/></g>
<g><path style="opacity:0.204" fill="#efd7d5" d="M 181.5,9.5 C 185.684,9.59195 189.017,11.2586 191.5,14.5C 188.128,12.8139 184.795,11.1473 181.5,9.5 Z"/></g>
<g><path style="opacity:0.945" fill="#da8f8b" d="M 168.5,12.5 C 170.265,11.5386 172.265,11.2053 174.5,11.5C 178.044,11.1324 181.044,12.1324 183.5,14.5C 178.616,13.0976 173.616,12.431 168.5,12.5 Z"/></g>
<g><path style="opacity:0.345" fill="#f2dddd" d="M 162.5,9.5 C 159.365,11.2387 156.365,13.2387 153.5,15.5C 155.223,11.791 158.223,9.79105 162.5,9.5 Z"/></g>
<g><path style="opacity:1" fill="#d05750" d="M 162.5,9.5 C 163.833,9.5 165.167,9.5 166.5,9.5C 169.518,9.33537 172.518,9.50204 175.5,10C 174.944,10.3826 174.611,10.8826 174.5,11.5C 172.265,11.2053 170.265,11.5386 168.5,12.5C 168.167,12.5 167.833,12.5 167.5,12.5C 165.102,12.2594 163.102,12.9261 161.5,14.5C 158.478,15.5222 156.478,17.5222 155.5,20.5C 155.118,25.3617 155.784,30.0284 157.5,34.5C 155.708,34.366 154.042,34.6993 152.5,35.5C 152.737,34.209 152.404,33.209 151.5,32.5C 149.967,30.3655 149.3,27.8655 149.5,25C 149.3,22.1345 149.967,19.6345 151.5,17.5C 152.5,17.1667 153.167,16.5 153.5,15.5C 156.365,13.2387 159.365,11.2387 162.5,9.5 Z"/></g>
<g><path style="opacity:0.157" fill="#f0d6d4" d="M 167.5,12.5 C 165.786,13.7384 163.786,14.405 161.5,14.5C 163.102,12.9261 165.102,12.2594 167.5,12.5 Z"/></g>
<g><path style="opacity:0.169" fill="#f4e9e8" d="M 61.5,16.5 C 59.7085,16.366 58.0418,16.6993 56.5,17.5C 58.0418,16.6993 59.7085,16.366 61.5,16.5 Z"/></g>
<g><path style="opacity:0.286" fill="#e9cdd0" d="M 183.5,14.5 C 185.027,14.427 186.027,15.0937 186.5,16.5C 184.973,16.573 183.973,15.9063 183.5,14.5 Z"/></g>
<g><path style="opacity:0.816" fill="#e0aca8" d="M 191.5,14.5 C 193.587,15.5846 194.92,17.2512 195.5,19.5C 193.413,18.4154 192.08,16.7488 191.5,14.5 Z"/></g>
<g><path style="opacity:0.133" fill="#f6eeed" d="M 153.5,15.5 C 153.167,16.5 152.5,17.1667 151.5,17.5C 151.5,16.1667 152.167,15.5 153.5,15.5 Z"/></g>
<g><path style="opacity:0.584" fill="#eccaca" d="M 186.5,16.5 C 189.453,17.7872 191.786,19.7872 193.5,22.5C 193.802,25.0593 193.468,27.3926 192.5,29.5C 192.662,27.4727 192.495,25.4727 192,23.5C 190.334,21.0043 188.5,18.671 186.5,16.5 Z"/></g>
<g><path style="opacity:0.027" fill="#f7e8e7" d="M 161.5,14.5 C 159.882,16.785 157.882,18.785 155.5,20.5C 156.478,17.5222 158.478,15.5222 161.5,14.5 Z"/></g>
<g><path style="opacity:0.127" fill="#f9f2f2" d="M 62.5,17.5 C 63.6491,17.7911 64.3158,18.6244 64.5,20C 64.472,21.0698 64.1386,21.9032 63.5,22.5C 63.634,20.7085 63.3007,19.0418 62.5,17.5 Z"/></g>
<g><path style="opacity:0.576" fill="#e3c1c0" d="M 56.5,17.5 C 56.5,19.5 56.5,21.5 56.5,23.5C 53.8333,21.5 53.8333,19.5 56.5,17.5 Z"/></g>
<g><path style="opacity:1" fill="#cf544d" d="M 61.5,16.5 C 62.1667,16.5 62.5,16.8333 62.5,17.5C 63.3007,19.0418 63.634,20.7085 63.5,22.5C 62.6879,23.9931 61.3545,24.6598 59.5,24.5C 58.2739,24.4805 57.2739,24.1471 56.5,23.5C 56.5,21.5 56.5,19.5 56.5,17.5C 58.0418,16.6993 59.7085,16.366 61.5,16.5 Z"/></g>
<g><path style="opacity:0.875" fill="#e5c1c0" d="M 299.5,32.5 C 297.495,29.9722 295.829,30.3055 294.5,33.5C 294.447,30.9394 295.447,28.9394 297.5,27.5C 298.95,28.8498 299.617,30.5165 299.5,32.5 Z"/></g>
<g><path style="opacity:0.037" fill="#f3e2e2" d="M 249.5,30.5 C 248.07,31.5375 246.403,32.2041 244.5,32.5C 245.635,30.7868 247.302,30.1201 249.5,30.5 Z"/></g>
<g><path style="opacity:0.071" fill="#efd3d2" d="M 257.5,31.5 C 257.5,31.1667 257.5,30.8333 257.5,30.5C 259.898,30.2594 261.898,30.9261 263.5,32.5C 261.5,32.1667 259.5,31.8333 257.5,31.5 Z"/></g>
<g><path style="opacity:0.079" fill="#fefafa" d="M 428.5,31.5 C 430.607,30.5318 432.941,30.1984 435.5,30.5C 435.83,47.6749 435.497,64.6749 434.5,81.5C 434.5,81.1667 434.5,80.8333 434.5,80.5C 434.5,64.1667 434.5,47.8333 434.5,31.5C 432.833,31.5 431.167,31.5 429.5,31.5C 429.167,31.5 428.833,31.5 428.5,31.5 Z"/></g>
<g><path style="opacity:1" fill="#cd4d46" d="M 257.5,30.5 C 257.5,30.8333 257.5,31.1667 257.5,31.5C 258.116,32.7978 258.116,33.7978 257.5,34.5C 254.482,34.3354 251.482,34.502 248.5,35C 247.584,35.2784 246.918,35.7784 246.5,36.5C 246.167,37.5 245.5,38.1667 244.5,38.5C 242.974,39.4919 242.307,40.9919 242.5,43C 242.307,45.0081 242.974,46.5081 244.5,47.5C 245.5,47.8333 246.167,48.5 246.5,49.5C 247.167,50.1667 247.833,50.8333 248.5,51.5C 245.434,51.276 242.934,49.9427 241,47.5C 240.517,48.448 240.351,49.448 240.5,50.5C 239.833,50.5 239.167,50.5 238.5,50.5C 236.14,43.3172 237.807,37.3172 243.5,32.5C 243.833,32.5 244.167,32.5 244.5,32.5C 246.403,32.2041 248.07,31.5375 249.5,30.5C 252.272,29.2329 254.939,29.2329 257.5,30.5 Z"/></g>
<g><path style="opacity:1" fill="#cb403a" d="M 343.5,30.5 C 344.338,30.8417 344.672,31.5084 344.5,32.5C 344.629,34.2161 344.962,35.8828 345.5,37.5C 345.657,38.8734 345.49,40.2068 345,41.5C 344.329,40.7476 343.496,40.4142 342.5,40.5C 340.896,41.287 340.229,42.6203 340.5,44.5C 339.069,45.7804 338.402,47.4471 338.5,49.5C 338.167,49.5 337.833,49.5 337.5,49.5C 335.744,48.4479 335.077,46.7812 335.5,44.5C 336.234,43.2921 336.567,41.9587 336.5,40.5C 338.288,37.4515 339.788,34.1182 341,30.5C 341.77,29.4019 342.603,29.4019 343.5,30.5 Z"/></g>
<g><path style="opacity:0.408" fill="#ebd0d0" d="M 263.5,32.5 C 266.712,32.7124 268.712,34.3791 269.5,37.5C 267.475,35.8036 265.475,34.137 263.5,32.5 Z"/></g>
<g><path style="opacity:0.114" fill="#edcfce" d="M 343.5,30.5 C 342.603,29.4019 341.77,29.4019 341,30.5C 339.788,34.1182 338.288,37.4515 336.5,40.5C 337.247,35.6762 339.081,31.3428 342,27.5C 343.039,28.2438 343.539,29.2438 343.5,30.5 Z"/></g>
<g><path style="opacity:0.472" fill="#deaeaf" d="M 37.5,34.5 C 37.1583,35.3382 36.4916,35.6716 35.5,35.5C 29.4632,35.1707 23.4632,35.5041 17.5,36.5C 17.8627,37.1835 18.1961,37.8501 18.5,38.5C 16.8235,37.8166 16.1568,36.4832 16.5,34.5C 23.5,34.5 30.5,34.5 37.5,34.5 Z"/></g>
<g><path style="opacity:0.425" fill="#dfaeae" d="M 151.5,32.5 C 152.404,33.209 152.737,34.209 152.5,35.5C 151.833,35.5 151.167,35.5 150.5,35.5C 136.5,35.5 122.5,35.5 108.5,35.5C 94.1667,35.5 79.8333,35.5 65.5,35.5C 56.1339,35.7208 46.8006,35.3874 37.5,34.5C 57.1337,34.1324 76.9671,34.1324 97,34.5C 115.512,34.4996 133.679,33.8329 151.5,32.5 Z"/></g>
<g><path style="opacity:0.342" fill="#e5bcbc" d="M 192.5,30.5 C 192.714,32.1439 192.38,33.6439 191.5,35C 184.174,35.4997 176.841,35.6663 169.5,35.5C 165.298,35.8168 161.298,35.4834 157.5,34.5C 168.52,34.8321 179.52,34.4988 190.5,33.5C 190.942,32.2613 191.609,31.2613 192.5,30.5 Z"/></g>
<g><path style="opacity:0.492" fill="#e1b7b6" d="M 195.5,32.5 C 195.833,32.5 196.167,32.5 196.5,32.5C 199.701,34.2603 203.367,35.0936 207.5,35C 208.985,36.7565 208.652,37.9232 206.5,38.5C 207.598,37.603 207.598,36.7697 206.5,36C 202.848,35.5014 199.182,35.3347 195.5,35.5C 195.5,34.5 195.5,33.5 195.5,32.5 Z"/></g>
<g><path style="opacity:0.482" fill="#e2b3b3" d="M 257.5,34.5 C 258.5,35.1667 259.5,35.8333 260.5,36.5C 255.833,35.1667 251.167,35.1667 246.5,36.5C 246.918,35.7784 247.584,35.2784 248.5,35C 251.482,34.502 254.482,34.3354 257.5,34.5 Z"/></g>
<g><path style="opacity:1" fill="#c84a47" d="M 257.5,31.5 C 259.5,31.8333 261.5,32.1667 263.5,32.5C 265.475,34.137 267.475,35.8036 269.5,37.5C 269.5,38.8333 269.5,40.1667 269.5,41.5C 267.708,41.634 266.042,41.3007 264.5,40.5C 263.662,40.1583 263.328,39.4916 263.5,38.5C 263.027,37.0937 262.027,36.427 260.5,36.5C 259.5,35.8333 258.5,35.1667 257.5,34.5C 258.116,33.7978 258.116,32.7978 257.5,31.5 Z"/></g>
<g><path style="opacity:0.016" fill="#f7eaeb" d="M 344.5,32.5 C 345.931,33.7804 346.598,35.4471 346.5,37.5C 346.167,37.5 345.833,37.5 345.5,37.5C 344.962,35.8828 344.629,34.2161 344.5,32.5 Z"/></g>
<g><path style="opacity:1" fill="#cc3937" d="M 365.5,31.5 C 375.167,31.5 384.833,31.5 394.5,31.5C 394.5,32.8333 394.5,34.1667 394.5,35.5C 390.298,35.1832 386.298,35.5166 382.5,36.5C 381.549,37.9187 381.216,39.5853 381.5,41.5C 380.732,40.7375 380.232,39.7375 380,38.5C 379.536,39.0944 379.369,39.7611 379.5,40.5C 379.167,40.5 378.833,40.5 378.5,40.5C 378.5,38.8333 378.5,37.1667 378.5,35.5C 374.167,35.5 369.833,35.5 365.5,35.5C 365.5,34.1667 365.5,32.8333 365.5,31.5 Z"/></g>
<g><path style="opacity:0.994" fill="#c73c3a" d="M 37.5,34.5 C 46.8006,35.3874 56.1339,35.7208 65.5,35.5C 65.6107,36.1174 65.944,36.6174 66.5,37C 72.6807,37.1724 78.6807,37.6724 84.5,38.5C 76.8333,38.5 69.1667,38.5 61.5,38.5C 61.5,40.1667 61.5,41.8333 61.5,43.5C 60.5,43.5 59.5,43.5 58.5,43.5C 58.7845,41.5853 58.4511,39.9187 57.5,38.5C 56.1667,38.5 54.8333,38.5 53.5,38.5C 52.5,38.5 51.5,38.5 50.5,38.5C 47.5,38.5 44.5,38.5 41.5,38.5C 39.8439,36.9397 37.8439,35.9397 35.5,35.5C 36.4916,35.6716 37.1583,35.3382 37.5,34.5 Z"/></g>
<g><path style="opacity:0.984" fill="#cb3a37" d="M 65.5,35.5 C 79.8333,35.5 94.1667,35.5 108.5,35.5C 112.768,35.8693 116.768,36.8693 120.5,38.5C 119.5,38.5 118.5,38.5 117.5,38.5C 108.167,38.5 98.8333,38.5 89.5,38.5C 88.9084,41.1272 88.5751,43.7938 88.5,46.5C 87.6554,47.6715 86.9887,49.0048 86.5,50.5C 84.631,48.3647 83.9644,45.6981 84.5,42.5C 84.5,42.1667 84.5,41.8333 84.5,41.5C 85.8333,40.5 85.8333,39.5 84.5,38.5C 78.6807,37.6724 72.6807,37.1724 66.5,37C 65.944,36.6174 65.6107,36.1174 65.5,35.5 Z"/></g>
<g><path style="opacity:0.998" fill="#c73d3b" d="M 108.5,35.5 C 122.5,35.5 136.5,35.5 150.5,35.5C 146.688,36.3238 142.688,36.8238 138.5,37C 144.016,37.1733 149.349,37.6733 154.5,38.5C 150.167,38.5 145.833,38.5 141.5,38.5C 138.167,38.5 134.833,38.5 131.5,38.5C 128.167,38.5 124.833,38.5 121.5,38.5C 121.167,38.5 120.833,38.5 120.5,38.5C 116.768,36.8693 112.768,35.8693 108.5,35.5 Z"/></g>
<g><path style="opacity:0.867" fill="#e5aeac" d="M 299.5,32.5 C 300.931,33.7804 301.598,35.4471 301.5,37.5C 301.167,37.5 300.833,37.5 300.5,37.5C 299.699,35.9582 299.366,34.2915 299.5,32.5 Z"/></g>
<g><path style="opacity:1" fill="#c63a36" d="M 429.5,32.5 C 430.833,32.5 432.167,32.5 433.5,32.5C 433.5,41.5 433.5,50.5 433.5,59.5C 432.85,59.8039 432.183,60.1373 431.5,60.5C 430.504,66.4632 430.171,72.4632 430.5,78.5C 431.5,78.5 432.5,78.5 433.5,78.5C 433.5,79.1667 433.5,79.8333 433.5,80.5C 432.167,80.5 430.833,80.5 429.5,80.5C 429.5,73.1667 429.5,65.8333 429.5,58.5C 422.167,58.5 414.833,58.5 407.5,58.5C 414.313,57.5088 421.313,57.1755 428.5,57.5C 428.5,56.5 428.5,55.5 428.5,54.5C 422.907,54.1934 417.407,54.5268 412,55.5C 410.052,54.8906 408.218,54.224 406.5,53.5C 414.167,53.5 421.833,53.5 429.5,53.5C 429.5,46.5 429.5,39.5 429.5,32.5 Z"/></g>
<g><path style="opacity:1" fill="#c83d38" d="M 35.5,35.5 C 37.8439,35.9397 39.8439,36.9397 41.5,38.5C 40.8826,38.6107 40.3826,38.944 40,39.5C 38.9571,42.7568 38.4571,46.0901 38.5,49.5C 37.6618,49.8417 37.3284,50.5084 37.5,51.5C 36.8902,52.391 36.5569,53.391 36.5,54.5C 36.5,54.8333 36.5,55.1667 36.5,55.5C 35.1667,55.5 33.8333,55.5 32.5,55.5C 30.2109,55.427 27.8775,55.0937 25.5,54.5C 23.8958,53.713 23.2291,52.3797 23.5,50.5C 31.5722,53.7472 35.5722,51.0806 35.5,42.5C 36.4345,41.4324 36.7678,40.099 36.5,38.5C 30.5,38.5 24.5,38.5 18.5,38.5C 18.1961,37.8501 17.8627,37.1835 17.5,36.5C 23.4632,35.5041 29.4632,35.1707 35.5,35.5 Z"/></g>
<g><path style="opacity:1" fill="#cc3836" d="M 195.5,32.5 C 195.5,33.5 195.5,34.5 195.5,35.5C 195.656,36.4982 195.156,37.4982 194,38.5C 185.585,37.5168 177.085,37.1834 168.5,37.5C 168.833,36.8333 169.167,36.1667 169.5,35.5C 176.841,35.6663 184.174,35.4997 191.5,35C 192.38,33.6439 192.714,32.1439 192.5,30.5C 192.5,30.1667 192.5,29.8333 192.5,29.5C 193.468,27.3926 193.802,25.0593 193.5,22.5C 193.369,21.6236 193.702,20.9569 194.5,20.5C 195.491,24.4454 195.824,28.4454 195.5,32.5 Z"/></g>
<g><path style="opacity:0.969" fill="#da9b95" d="M 294.5,33.5 C 294.88,35.698 294.213,37.3646 292.5,38.5C 292.402,36.4471 293.069,34.7804 294.5,33.5 Z"/></g>
<g><path style="opacity:0.027" fill="#fefdfd" d="M 376.5,36.5 C 377.167,51.1667 377.833,65.8333 378.5,80.5C 378.5,80.8333 378.5,81.1667 378.5,81.5C 376.516,66.8706 375.85,51.8706 376.5,36.5 Z"/></g>
<g><path style="opacity:0.302" fill="#ebd1d0" d="M 365.5,31.5 C 375.319,30.506 385.319,30.1726 395.5,30.5C 395.5,32.5 395.5,34.5 395.5,36.5C 391.5,36.5 387.5,36.5 383.5,36.5C 383.5,51.5 383.5,66.5 383.5,81.5C 381.833,81.5 380.167,81.5 378.5,81.5C 378.5,81.1667 378.5,80.8333 378.5,80.5C 379.833,80.5 381.167,80.5 382.5,80.5C 382.5,65.8333 382.5,51.1667 382.5,36.5C 386.298,35.5166 390.298,35.1832 394.5,35.5C 394.5,34.1667 394.5,32.8333 394.5,31.5C 384.833,31.5 375.167,31.5 365.5,31.5 Z"/></g>
<g><path style="opacity:0.351" fill="#e4bdbd" d="M 450.5,31.5 C 448.585,31.2155 446.919,31.5489 445.5,32.5C 445.5,43.8333 445.5,55.1667 445.5,66.5C 445.5,71.1667 445.5,75.8333 445.5,80.5C 446.833,80.5 448.167,80.5 449.5,80.5C 449.833,80.5 450.167,80.5 450.5,80.5C 448.735,81.4614 446.735,81.7947 444.5,81.5C 444.5,64.5 444.5,47.5 444.5,30.5C 446.735,30.2053 448.735,30.5386 450.5,31.5 Z"/></g>
<g><path style="opacity:0.976" fill="#cf3635" d="M 445.5,32.5 C 446.833,32.5 448.167,32.5 449.5,32.5C 449.5,33.5 449.5,34.5 449.5,35.5C 448.448,35.3505 447.448,35.5172 446.5,36C 447.068,41.0407 447.401,46.374 447.5,52C 447.333,56.1667 447.167,60.3333 447,64.5C 446.722,65.4158 446.222,66.0825 445.5,66.5C 445.5,55.1667 445.5,43.8333 445.5,32.5 Z"/></g>
<g><path style="opacity:0.224" fill="#f5e1e0" d="M 260.5,36.5 C 262.027,36.427 263.027,37.0937 263.5,38.5C 261.973,38.573 260.973,37.9063 260.5,36.5 Z"/></g>
<g><path style="opacity:0.255" fill="#f3dfde" d="M 18.5,38.5 C 24.5,38.5 30.5,38.5 36.5,38.5C 36.7678,40.099 36.4345,41.4324 35.5,42.5C 35.5,41.5 35.5,40.5 35.5,39.5C 29.642,39.8222 23.9753,39.4889 18.5,38.5 Z"/></g>
<g><path style="opacity:0.024" fill="#faf2f2" d="M 41.5,38.5 C 44.5,38.5 47.5,38.5 50.5,38.5C 47.9723,39.1657 45.3056,39.8324 42.5,40.5C 41.9724,42.3361 41.3058,44.0028 40.5,45.5C 40.448,43.0971 40.7814,40.7638 41.5,38.5 Z"/></g>
<g><path style="opacity:0.255" fill="#f2dcdc" d="M 84.5,38.5 C 85.8333,39.5 85.8333,40.5 84.5,41.5C 77.5762,39.5367 70.2428,38.8701 62.5,39.5C 63.1491,53.8733 62.4824,67.8733 60.5,81.5C 61.4524,75.9252 61.7857,70.2586 61.5,64.5C 61.5,57.5 61.5,50.5 61.5,43.5C 61.5,41.8333 61.5,40.1667 61.5,38.5C 69.1667,38.5 76.8333,38.5 84.5,38.5 Z"/></g>
<g><path style="opacity:0.13" fill="#f4dede" d="M 117.5,38.5 C 117.5,40.8333 117.5,43.1667 117.5,45.5C 117.5,45.8333 117.5,46.1667 117.5,46.5C 116.209,46.7373 115.209,46.404 114.5,45.5C 116.308,44.0821 116.975,42.0821 116.5,39.5C 107.833,39.5 99.1667,39.5 90.5,39.5C 90.5905,42.1522 89.9238,44.4855 88.5,46.5C 88.5751,43.7938 88.9084,41.1272 89.5,38.5C 98.8333,38.5 108.167,38.5 117.5,38.5 Z"/></g>
<g><path style="opacity:0.257" fill="#f2dddd" d="M 161.5,38.5 C 171.833,38.5 182.167,38.5 192.5,38.5C 192.5,42.1667 192.5,45.8333 192.5,49.5C 191.833,49.5 191.167,49.5 190.5,49.5C 191.414,46.272 191.747,42.9387 191.5,39.5C 181.319,39.8274 171.319,39.494 161.5,38.5 Z"/></g>
<g><path style="opacity:1" fill="#c33f3c" d="M 195.5,35.5 C 199.182,35.3347 202.848,35.5014 206.5,36C 207.598,36.7697 207.598,37.603 206.5,38.5C 202.833,38.5 199.167,38.5 195.5,38.5C 195.5,39.8333 195.5,41.1667 195.5,42.5C 193.917,44.5078 192.917,46.8411 192.5,49.5C 192.5,45.8333 192.5,42.1667 192.5,38.5C 182.167,38.5 171.833,38.5 161.5,38.5C 161.167,38.5 160.833,38.5 160.5,38.5C 159.833,38.5 159.167,38.5 158.5,38.5C 161.625,37.5206 164.958,37.1872 168.5,37.5C 177.085,37.1834 185.585,37.5168 194,38.5C 195.156,37.4982 195.656,36.4982 195.5,35.5 Z"/></g>
<g><path style="opacity:0.187" fill="#fdefef" d="M 53.5,38.5 C 54.8333,38.5 56.1667,38.5 57.5,38.5C 57.8064,41.3854 57.4731,44.0521 56.5,46.5C 56.5,44.1667 56.5,41.8333 56.5,39.5C 55.209,39.7373 54.209,39.404 53.5,38.5 Z"/></g>
<g><path style="opacity:0.04" fill="#fcf4f4" d="M 121.5,38.5 C 124.833,38.5 128.167,38.5 131.5,38.5C 128.713,39.4767 125.713,39.81 122.5,39.5C 122.187,43.0419 122.521,46.3752 123.5,49.5C 123.5,49.8333 123.5,50.1667 123.5,50.5C 122.883,50.6107 122.383,50.944 122,51.5C 121.501,47.1794 121.334,42.8461 121.5,38.5 Z"/></g>
<g><path style="opacity:0.035" fill="#fefcfc" d="M 158.5,38.5 C 159.167,38.5 159.833,38.5 160.5,38.5C 159.849,52.9315 159.182,67.2648 158.5,81.5C 158.5,67.1667 158.5,52.8333 158.5,38.5 Z"/></g>
<g><path style="opacity:0.059" fill="#f5eaeb" d="M 269.5,37.5 C 270.931,38.7804 271.598,40.4471 271.5,42.5C 268.612,43.0102 266.279,42.3435 264.5,40.5C 266.042,41.3007 267.708,41.634 269.5,41.5C 269.5,40.1667 269.5,38.8333 269.5,37.5 Z"/></g>
<g><path style="opacity:1" fill="#ce3633" d="M 157.5,34.5 C 161.298,35.4834 165.298,35.8168 169.5,35.5C 169.167,36.1667 168.833,36.8333 168.5,37.5C 164.958,37.1872 161.625,37.5206 158.5,38.5C 157.506,47.9856 157.173,57.6522 157.5,67.5C 156.732,66.7375 156.232,65.7375 156,64.5C 155.83,55.657 155.33,46.9903 154.5,38.5C 149.349,37.6733 144.016,37.1733 138.5,37C 142.688,36.8238 146.688,36.3238 150.5,35.5C 151.167,35.5 151.833,35.5 152.5,35.5C 154.042,34.6993 155.708,34.366 157.5,34.5 Z"/></g>
<g><path style="opacity:0.078" fill="#f9eded" d="M 301.5,37.5 C 302.674,38.5137 303.34,39.847 303.5,41.5C 301.896,40.713 301.229,39.3797 301.5,37.5 Z"/></g>
<g><path style="opacity:1" fill="#cf3533" d="M 381.5,41.5 C 381.832,54.1842 381.499,66.8508 380.5,79.5C 379.501,66.5171 379.168,53.5171 379.5,40.5C 379.369,39.7611 379.536,39.0944 380,38.5C 380.232,39.7375 380.732,40.7375 381.5,41.5 Z"/></g>
<g><path style="opacity:0.269" fill="#e3c6c5" d="M 141.5,38.5 C 145.833,38.5 150.167,38.5 154.5,38.5C 154.829,51.0113 154.495,63.3446 153.5,75.5C 153.5,63.5 153.5,51.5 153.5,39.5C 149.298,39.8168 145.298,39.4834 141.5,38.5 Z"/></g>
<g><path style="opacity:0.127" fill="#f1dede" d="M 244.5,38.5 C 243.167,41.5 243.167,44.5 244.5,47.5C 242.974,46.5081 242.307,45.0081 242.5,43C 242.307,40.9919 242.974,39.4919 244.5,38.5 Z"/></g>
<g><path style="opacity:0.795" fill="#c4605f" d="M 445.5,32.5 C 446.919,31.5489 448.585,31.2155 450.5,31.5C 450.5,47.8333 450.5,64.1667 450.5,80.5C 450.167,80.5 449.833,80.5 449.5,80.5C 449.5,65.5 449.5,50.5 449.5,35.5C 449.5,34.5 449.5,33.5 449.5,32.5C 448.167,32.5 446.833,32.5 445.5,32.5 Z"/></g>
<g><path style="opacity:0.7" fill="#d88d8b" d="M 206.5,38.5 C 203.375,39.4794 200.042,39.8128 196.5,39.5C 196.5,46.5 196.5,53.5 196.5,60.5C 196.167,60.5 195.833,60.5 195.5,60.5C 195.5,54.5 195.5,48.5 195.5,42.5C 195.5,41.1667 195.5,39.8333 195.5,38.5C 199.167,38.5 202.833,38.5 206.5,38.5 Z"/></g>
<g><path style="opacity:0.349" fill="#f1dada" d="M 243.5,32.5 C 237.807,37.3172 236.14,43.3172 238.5,50.5C 237.883,50.3893 237.383,50.056 237,49.5C 236.333,45.8333 236.333,42.1667 237,38.5C 238.406,35.5914 240.572,33.5914 243.5,32.5 Z"/></g>
<g><path style="opacity:0.247" fill="#f0d4d3" d="M 342.5,40.5 C 342.5,41.1667 342.5,41.8333 342.5,42.5C 341.833,43.1667 341.167,43.8333 340.5,44.5C 340.229,42.6203 340.896,41.287 342.5,40.5 Z"/></g>
<g><path style="opacity:1" fill="#cb3d39" d="M 299.5,32.5 C 299.366,34.2915 299.699,35.9582 300.5,37.5C 300.357,39.2624 300.691,40.9291 301.5,42.5C 300.767,43.087 299.767,43.087 298.5,42.5C 297.811,41.2264 296.977,41.2264 296,42.5C 294.589,44.6504 293.755,46.9837 293.5,49.5C 292.463,50.9303 291.796,52.597 291.5,54.5C 290.655,55.6715 289.989,57.0048 289.5,58.5C 288.5,58.5 287.5,58.5 286.5,58.5C 286.5,57.5 286.5,56.5 286.5,55.5C 286.833,54.1667 287.167,52.8333 287.5,51.5C 287.5,51.1667 287.5,50.8333 287.5,50.5C 288.401,49.7095 289.068,48.7095 289.5,47.5C 290.649,47.2089 291.316,46.3756 291.5,45C 292.077,42.863 292.41,40.6963 292.5,38.5C 294.213,37.3646 294.88,35.698 294.5,33.5C 295.829,30.3055 297.495,29.9722 299.5,32.5 Z"/></g>
<g><path style="opacity:0.271" fill="#eed7d7" d="M 336.5,40.5 C 336.567,41.9587 336.234,43.2921 335.5,44.5C 335.167,44.5 334.833,44.5 334.5,44.5C 334.66,42.847 335.326,41.5137 336.5,40.5 Z"/></g>
<g><path style="opacity:0.859" fill="#e0aaa8" d="M 347.5,40.5 C 348.931,41.7804 349.598,43.4471 349.5,45.5C 347.787,44.3646 347.12,42.698 347.5,40.5 Z"/></g>
<g><path style="opacity:1" fill="#d7726d" d="M 41.5,38.5 C 40.7814,40.7638 40.448,43.0971 40.5,45.5C 40.5674,46.9587 40.2341,48.2921 39.5,49.5C 39.1667,49.5 38.8333,49.5 38.5,49.5C 38.4571,46.0901 38.9571,42.7568 40,39.5C 40.3826,38.944 40.8826,38.6107 41.5,38.5 Z"/></g>
<g><path style="opacity:0.322" fill="#eacbca" d="M 342.5,42.5 C 344.834,44.1757 345.834,46.509 345.5,49.5C 343.935,47.4907 342.935,45.1573 342.5,42.5 Z"/></g>
<g><path style="opacity:0.149" fill="#f3dfdf" d="M 111.5,45.5 C 110.71,46.4013 109.71,47.0679 108.5,47.5C 108.821,45.9519 109.821,45.2852 111.5,45.5 Z"/></g>
<g><path style="opacity:0.871" fill="#dc9996" d="M 137.5,46.5 C 133.434,46.307 129.434,46.6403 125.5,47.5C 129.261,44.1324 133.261,43.799 137.5,46.5 Z"/></g>
<g><path style="opacity:0.188" fill="#f0d4d3" d="M 298.5,42.5 C 299.939,44.588 300.606,46.9214 300.5,49.5C 299.249,47.6181 298.082,45.6181 297,43.5C 296.059,45.7274 294.892,47.7274 293.5,49.5C 293.755,46.9837 294.589,44.6504 296,42.5C 296.977,41.2264 297.811,41.2264 298.5,42.5 Z"/></g>
<g><path style="opacity:1" fill="#cb3831" d="M 115.5,59.5 C 115.5,60.1667 115.167,60.5 114.5,60.5C 113.057,61.3351 112.057,62.6684 111.5,64.5C 110.614,63.675 110.281,62.675 110.5,61.5C 114.024,58.0201 115.357,54.0201 114.5,49.5C 113.391,48.71 112.058,48.21 110.5,48C 113.036,47.8138 115.369,47.3138 117.5,46.5C 117.5,46.1667 117.5,45.8333 117.5,45.5C 118.302,44.0484 118.802,42.3817 119,40.5C 119.499,44.8206 119.666,49.1539 119.5,53.5C 123.172,54.0447 122.838,54.3781 118.5,54.5C 118.5,55.8333 118.5,57.1667 118.5,58.5C 117.209,58.2627 116.209,58.596 115.5,59.5 Z"/></g>
<g><path style="opacity:1" fill="#cd6c67" d="M 292.5,38.5 C 292.41,40.6963 292.077,42.863 291.5,45C 291.316,46.3756 290.649,47.2089 289.5,47.5C 289.5,46.8333 289.5,46.1667 289.5,45.5C 290.264,42.9823 291.264,40.649 292.5,38.5 Z"/></g>
<g><path style="opacity:1" fill="#cc4742" d="M 300.5,37.5 C 300.833,37.5 301.167,37.5 301.5,37.5C 301.229,39.3797 301.896,40.713 303.5,41.5C 304.404,42.209 304.737,43.209 304.5,44.5C 304.12,46.698 304.787,48.3646 306.5,49.5C 306.12,51.698 306.787,53.3646 308.5,54.5C 308.629,56.2161 308.962,57.8828 309.5,59.5C 308.167,60.5 306.833,61.5 305.5,62.5C 305.768,60.901 305.434,59.5676 304.5,58.5C 303.925,55.0884 302.592,52.0884 300.5,49.5C 300.606,46.9214 299.939,44.588 298.5,42.5C 299.767,43.087 300.767,43.087 301.5,42.5C 300.691,40.9291 300.357,39.2624 300.5,37.5 Z"/></g>
<g><path style="opacity:0.325" fill="#edd2d0" d="M 125.5,47.5 C 125.167,48.5 124.5,49.1667 123.5,49.5C 123.5,48.1667 124.167,47.5 125.5,47.5 Z"/></g>
<g><path style="opacity:0.012" fill="#f8eced" d="M 138.5,47.5 C 139.833,47.5 140.5,48.1667 140.5,49.5C 139.5,49.1667 138.833,48.5 138.5,47.5 Z"/></g>
<g><path style="opacity:0.037" fill="#f8eeee" d="M 289.5,45.5 C 289.5,46.1667 289.5,46.8333 289.5,47.5C 289.068,48.7095 288.401,49.7095 287.5,50.5C 287.402,48.4471 288.069,46.7804 289.5,45.5 Z"/></g>
<g><path style="opacity:0.82" fill="#e1abaa" d="M 304.5,44.5 C 305.931,45.7804 306.598,47.4471 306.5,49.5C 304.787,48.3646 304.12,46.698 304.5,44.5 Z"/></g>
<g><path style="opacity:0.333" fill="#ead0cf" d="M 340.5,44.5 C 340.598,46.5529 339.931,48.2196 338.5,49.5C 338.402,47.4471 339.069,45.7804 340.5,44.5 Z"/></g>
<g><path style="opacity:0.616" fill="#e8bfc0" d="M 52.5,47.5 C 50.4855,48.9238 48.1522,49.5905 45.5,49.5C 47.5145,48.0762 49.8478,47.4095 52.5,47.5 Z"/></g>
<g><path style="opacity:0.996" fill="#cb4d4b" d="M 52.5,47.5 C 53.1667,47.5 53.8333,47.5 54.5,47.5C 56.2014,48.2114 57.2014,49.5447 57.5,51.5C 55.5853,51.2155 53.9187,51.5489 52.5,52.5C 50.3926,53.4682 48.0593,53.8016 45.5,53.5C 42.4552,53.5079 39.4552,53.8413 36.5,54.5C 36.5569,53.391 36.8902,52.391 37.5,51.5C 39.8984,51.7406 41.8984,51.0739 43.5,49.5C 44.1667,49.5 44.8333,49.5 45.5,49.5C 48.1522,49.5905 50.4855,48.9238 52.5,47.5 Z"/></g>
<g><path style="opacity:0.998" fill="#c64e4a" d="M 57.5,38.5 C 58.4511,39.9187 58.7845,41.5853 58.5,43.5C 59.5,43.5 60.5,43.5 61.5,43.5C 61.5,50.5 61.5,57.5 61.5,64.5C 60.7321,63.7375 60.2321,62.7375 60,61.5C 59.8923,65.4651 59.059,69.1317 57.5,72.5C 57.5,65.5 57.5,58.5 57.5,51.5C 57.2014,49.5447 56.2014,48.2114 54.5,47.5C 54.8417,46.6618 55.5084,46.3284 56.5,46.5C 57.4731,44.0521 57.8064,41.3854 57.5,38.5 Z"/></g>
<g><path style="opacity:0.614" fill="#d08b89" d="M 158.5,38.5 C 158.5,52.8333 158.5,67.1667 158.5,81.5C 157.167,82.8333 155.833,82.8333 154.5,81.5C 155.5,81.5 156.5,81.5 157.5,81.5C 157.5,76.8333 157.5,72.1667 157.5,67.5C 157.173,57.6522 157.506,47.9856 158.5,38.5 Z"/></g>
<g><path style="opacity:1" fill="#cc5851" d="M 334.5,44.5 C 334.833,44.5 335.167,44.5 335.5,44.5C 335.077,46.7812 335.744,48.4479 337.5,49.5C 336.962,51.1172 336.629,52.7839 336.5,54.5C 335.069,55.7804 334.402,57.4471 334.5,59.5C 333.596,60.209 333.263,61.209 333.5,62.5C 332.265,60.983 332.265,59.3163 333.5,57.5C 333.192,56.6919 332.692,56.0253 332,55.5C 331.098,57.4308 329.931,59.0975 328.5,60.5C 328.604,58.2972 329.27,56.2972 330.5,54.5C 331.674,53.4863 332.34,52.153 332.5,50.5C 332.595,48.2143 333.262,46.2143 334.5,44.5 Z"/></g>
<g><path style="opacity:0.404" fill="#e7c4c4" d="M 35.5,42.5 C 35.5722,51.0806 31.5722,53.7472 23.5,50.5C 23.2291,52.3797 23.8958,53.713 25.5,54.5C 26.1667,55.5 26.8333,56.5 27.5,57.5C 23.927,56.4374 22.0937,54.1041 22,50.5C 25.1016,49.7781 28.2683,49.6114 31.5,50C 33.1276,47.5828 34.461,45.0828 35.5,42.5 Z"/></g>
<g><path style="opacity:0.043" fill="#f1d8d8" d="M 88.5,46.5 C 88.8799,48.698 88.2132,50.3646 86.5,51.5C 86.5,51.1667 86.5,50.8333 86.5,50.5C 86.9887,49.0048 87.6554,47.6715 88.5,46.5 Z"/></g>
<g><path style="opacity:0.157" fill="#f3dfde" d="M 246.5,49.5 C 249.785,49.9281 252.785,50.9281 255.5,52.5C 253.139,52.3259 250.806,51.9926 248.5,51.5C 247.833,50.8333 247.167,50.1667 246.5,49.5 Z"/></g>
<g><path style="opacity:0.784" fill="#da9a98" d="M 38.5,49.5 C 38.8333,50.8333 39.1667,50.8333 39.5,49.5C 40.8333,49.5 42.1667,49.5 43.5,49.5C 41.8984,51.0739 39.8984,51.7406 37.5,51.5C 37.3284,50.5084 37.6618,49.8417 38.5,49.5 Z"/></g>
<g><path style="opacity:0.153" fill="#f7e7e7" d="M 82.5,48.5 C 82.573,50.0269 81.9063,51.0269 80.5,51.5C 80.427,49.9731 81.0937,48.9731 82.5,48.5 Z"/></g>
<g><path style="opacity:0.647" fill="#e6c2c0" d="M 108.5,47.5 C 105.778,52.9007 101.444,55.234 95.5,54.5C 97.2922,53.6909 99.2922,53.1909 101.5,53C 103.441,50.5464 105.775,48.713 108.5,47.5 Z"/></g>
<g><path style="opacity:0.659" fill="#e3b6b4" d="M 188.5,49.5 C 185.781,50.913 182.781,51.5797 179.5,51.5C 182.219,50.087 185.219,49.4203 188.5,49.5 Z"/></g>
<g><path style="opacity:0.173" fill="#f2d0cf" d="M 349.5,45.5 C 351.008,47.1815 352.008,49.1815 352.5,51.5C 350.025,50.3126 349.025,48.3126 349.5,45.5 Z"/></g>
<g><path style="opacity:0.506" fill="#e1afb1" d="M 140.5,49.5 C 141.906,49.9731 142.573,50.9731 142.5,52.5C 141.094,52.0269 140.427,51.0269 140.5,49.5 Z"/></g>
<g><path style="opacity:1" fill="#cb433d" d="M 248.5,51.5 C 250.806,51.9926 253.139,52.3259 255.5,52.5C 258.95,54.2078 262.617,55.5412 266.5,56.5C 266.973,57.9063 267.973,58.573 269.5,58.5C 269.833,59.5 270.5,60.1667 271.5,60.5C 271.5,61.1667 271.5,61.8333 271.5,62.5C 271.852,65.0728 271.352,67.4062 270,69.5C 269.794,67.0643 268.627,65.3976 266.5,64.5C 266.5,62.5 265.5,61.5 263.5,61.5C 262.365,59.7868 260.698,59.1201 258.5,59.5C 258.167,59.5 257.833,59.5 257.5,59.5C 255.562,57.8372 253.228,57.1706 250.5,57.5C 248.901,57.7678 247.568,57.4345 246.5,56.5C 244.194,54.8606 242.194,52.8606 240.5,50.5C 240.351,49.448 240.517,48.448 241,47.5C 242.934,49.9427 245.434,51.276 248.5,51.5 Z"/></g>
<g><path style="opacity:0.041" fill="#f4e5e4" d="M 293.5,49.5 C 293.88,51.698 293.213,53.3646 291.5,54.5C 291.796,52.597 292.463,50.9303 293.5,49.5 Z"/></g>
<g><path style="opacity:0.622" fill="#cd8f8d" d="M 365.5,35.5 C 369.833,35.5 374.167,35.5 378.5,35.5C 378.5,37.1667 378.5,38.8333 378.5,40.5C 378.5,53.8333 378.5,67.1667 378.5,80.5C 377.833,65.8333 377.167,51.1667 376.5,36.5C 372.629,36.815 368.962,36.4816 365.5,35.5 Z"/></g>
<g><path style="opacity:0.189" fill="#f7e3e2" d="M 52.5,52.5 C 53.9187,51.5489 55.5853,51.2155 57.5,51.5C 57.5,58.5 57.5,65.5 57.5,72.5C 57.2641,75.6085 57.5975,78.6085 58.5,81.5C 56.5267,72.2245 55.86,62.5578 56.5,52.5C 55.1667,52.5 53.8333,52.5 52.5,52.5 Z"/></g>
<g><path style="opacity:0.118" fill="#f5e7e8" d="M 75.5,53.5 C 73.8583,51.9192 71.8583,51.2525 69.5,51.5C 69.5,52.5 69.5,53.5 69.5,54.5C 68.5655,53.4324 68.2322,52.099 68.5,50.5C 70.5273,50.3379 72.5273,50.5045 74.5,51C 75.2524,51.6708 75.5858,52.5041 75.5,53.5 Z"/></g>
<g><path style="opacity:1" fill="#c74542" d="M 111.5,45.5 C 112.5,45.5 113.5,45.5 114.5,45.5C 115.209,46.404 116.209,46.7373 117.5,46.5C 115.369,47.3138 113.036,47.8138 110.5,48C 112.058,48.21 113.391,48.71 114.5,49.5C 112.62,49.2291 111.287,49.8958 110.5,51.5C 108.5,51.5 107.5,52.5 107.5,54.5C 106.094,54.9731 105.427,55.9731 105.5,57.5C 104.833,57.8333 104.167,58.1667 103.5,58.5C 103.737,57.209 103.404,56.209 102.5,55.5C 99.8333,55.5 97.1667,55.5 94.5,55.5C 94.5,55.1667 94.5,54.8333 94.5,54.5C 94.8333,54.5 95.1667,54.5 95.5,54.5C 101.444,55.234 105.778,52.9007 108.5,47.5C 109.71,47.0679 110.71,46.4013 111.5,45.5 Z"/></g>
<g><path style="opacity:0.082" fill="#f1d4d2" d="M 110.5,51.5 C 109.833,52.8333 108.833,53.8333 107.5,54.5C 107.5,52.5 108.5,51.5 110.5,51.5 Z"/></g>
<g><path style="opacity:0.004" fill="#f9eceb" d="M 127.5,51.5 C 127.5,52.8333 126.833,53.5 125.5,53.5C 125.5,53.1667 125.5,52.8333 125.5,52.5C 126.167,52.1667 126.833,51.8333 127.5,51.5 Z"/></g>
<g><path style="opacity:0.016" fill="#f8ecec" d="M 136.5,51.5 C 137.906,51.9731 138.573,52.9731 138.5,54.5C 137.094,54.0269 136.427,53.0269 136.5,51.5 Z"/></g>
<g><path style="opacity:0.875" fill="#e4a8a5" d="M 179.5,51.5 C 179.167,52.1667 178.833,52.8333 178.5,53.5C 176.833,53.5 175.167,53.5 173.5,53.5C 175.214,52.2616 177.214,51.595 179.5,51.5 Z"/></g>
<g><path style="opacity:1" fill="#da756b" d="M 188.5,49.5 C 189.167,49.5 189.833,49.5 190.5,49.5C 191.167,49.5 191.833,49.5 192.5,49.5C 191.167,50.8333 191.167,52.1667 192.5,53.5C 192.5,58.1667 192.5,62.8333 192.5,67.5C 191.674,63.0181 191.174,58.3514 191,53.5C 187.961,54.8852 184.794,55.8852 181.5,56.5C 179.708,56.366 178.042,56.6993 176.5,57.5C 177.335,56.0568 178.668,55.0568 180.5,54.5C 180.043,53.7025 179.376,53.3691 178.5,53.5C 178.833,52.8333 179.167,52.1667 179.5,51.5C 182.781,51.5797 185.781,50.913 188.5,49.5 Z"/></g>
<g><path style="opacity:0.024" fill="#f2dddd" d="M 255.5,52.5 C 259.708,52.677 263.374,54.0103 266.5,56.5C 262.617,55.5412 258.95,54.2078 255.5,52.5 Z"/></g>
<g><path style="opacity:0.831" fill="#e1afab" d="M 306.5,49.5 C 307.931,50.7804 308.598,52.4471 308.5,54.5C 306.787,53.3646 306.12,51.698 306.5,49.5 Z"/></g>
<g><path style="opacity:0.094" fill="#f5e3e3" d="M 332.5,50.5 C 332.34,52.153 331.674,53.4863 330.5,54.5C 330.229,52.6203 330.896,51.287 332.5,50.5 Z"/></g>
<g><path style="opacity:0.369" fill="#ebccca" d="M 337.5,49.5 C 337.833,49.5 338.167,49.5 338.5,49.5C 338.598,51.5529 337.931,53.2196 336.5,54.5C 336.629,52.7839 336.962,51.1172 337.5,49.5 Z"/></g>
<g><path style="opacity:0.067" fill="#f6e5e5" d="M 401.5,31.5 C 403.265,30.5386 405.265,30.2053 407.5,30.5C 407.5,37.8333 407.5,45.1667 407.5,52.5C 414.5,52.5 421.5,52.5 428.5,52.5C 428.5,45.5 428.5,38.5 428.5,31.5C 428.833,31.5 429.167,31.5 429.5,31.5C 429.5,31.8333 429.5,32.1667 429.5,32.5C 429.5,39.5 429.5,46.5 429.5,53.5C 421.833,53.5 414.167,53.5 406.5,53.5C 406.5,46.1667 406.5,38.8333 406.5,31.5C 404.833,31.5 403.167,31.5 401.5,31.5 Z"/></g>
<g><path style="opacity:0.239" fill="#e6c3c2" d="M 287.5,51.5 C 287.167,52.8333 286.833,54.1667 286.5,55.5C 286.167,55.5 285.833,55.5 285.5,55.5C 285.229,53.6203 285.896,52.287 287.5,51.5 Z"/></g>
<g><path style="opacity:0.737" fill="#c87173" d="M 429.5,32.5 C 429.5,32.1667 429.5,31.8333 429.5,31.5C 431.167,31.5 432.833,31.5 434.5,31.5C 434.5,47.8333 434.5,64.1667 434.5,80.5C 434.167,80.5 433.833,80.5 433.5,80.5C 433.5,79.8333 433.5,79.1667 433.5,78.5C 433.5,72.1667 433.5,65.8333 433.5,59.5C 433.5,50.5 433.5,41.5 433.5,32.5C 432.167,32.5 430.833,32.5 429.5,32.5 Z"/></g>
<g><path style="opacity:0.141" fill="#eccdcd" d="M 45.5,53.5 C 42.8291,55.1181 39.8291,55.7847 36.5,55.5C 36.5,55.1667 36.5,54.8333 36.5,54.5C 39.4552,53.8413 42.4552,53.5079 45.5,53.5 Z"/></g>
<g><path style="opacity:0.996" fill="#cc4f4b" d="M 84.5,42.5 C 83.9644,45.6981 84.631,48.3647 86.5,50.5C 86.5,50.8333 86.5,51.1667 86.5,51.5C 85.5,52.1667 84.5,52.8333 83.5,53.5C 83.631,52.7611 83.4643,52.0944 83,51.5C 80.8055,54.9625 77.6388,56.2958 73.5,55.5C 73.5,56.5 73.5,57.5 73.5,58.5C 72.8333,58.1667 72.1667,57.8333 71.5,57.5C 71.573,55.9731 70.9063,54.9731 69.5,54.5C 69.5,53.5 69.5,52.5 69.5,51.5C 71.8583,51.2525 73.8583,51.9192 75.5,53.5C 77.8242,54.8326 79.4908,54.1659 80.5,51.5C 81.9063,51.0269 82.573,50.0269 82.5,48.5C 82.595,46.2143 83.2616,44.2143 84.5,42.5 Z"/></g>
<g><path style="opacity:0.184" fill="#f3dada" d="M 80.5,51.5 C 79.4908,54.1659 77.8242,54.8326 75.5,53.5C 77.2838,53.1075 78.9505,52.4408 80.5,51.5 Z"/></g>
<g><path style="opacity:0.247" fill="#eec7c6" d="M 86.5,51.5 C 86.5858,52.4959 86.2524,53.3292 85.5,54C 88.4816,54.498 91.4816,54.6646 94.5,54.5C 94.5,54.8333 94.5,55.1667 94.5,55.5C 90.351,56.0803 86.6843,55.4136 83.5,53.5C 84.5,52.8333 85.5,52.1667 86.5,51.5 Z"/></g>
<g><path style="opacity:0.204" fill="#e9c6c8" d="M 142.5,52.5 C 144.104,53.287 144.771,54.6203 144.5,56.5C 143.326,55.4863 142.66,54.153 142.5,52.5 Z"/></g>
<g><path style="opacity:0.102" fill="#f0d2d2" d="M 238.5,50.5 C 239.167,50.5 239.833,50.5 240.5,50.5C 242.194,52.8606 244.194,54.8606 246.5,56.5C 242.98,55.6472 240.313,53.6472 238.5,50.5 Z"/></g>
<g><path style="opacity:0.996" fill="#cb4644" d="M 25.5,54.5 C 27.8775,55.0937 30.2109,55.427 32.5,55.5C 34.5491,58.5497 37.2157,60.883 40.5,62.5C 41.8333,63.1667 42.8333,64.1667 43.5,65.5C 44.2623,67.2624 45.5956,68.2624 47.5,68.5C 47.427,70.0269 48.0937,71.0269 49.5,71.5C 49.5,72.1667 49.5,72.8333 49.5,73.5C 48.065,75.4011 46.3983,75.7345 44.5,74.5C 43.5987,73.7095 42.9321,72.7095 42.5,71.5C 41.8333,68.8333 40.1667,67.1667 37.5,66.5C 37.1667,65.5 36.5,64.8333 35.5,64.5C 35.1667,63.5 34.5,62.8333 33.5,62.5C 32.0892,60.086 30.0892,58.4194 27.5,57.5C 26.8333,56.5 26.1667,55.5 25.5,54.5 Z"/></g>
<g><path style="opacity:0.016" fill="#f7e6e6" d="M 32.5,55.5 C 33.8333,55.5 35.1667,55.5 36.5,55.5C 36.3893,56.1174 36.056,56.6174 35.5,57C 37.424,58.7498 39.0907,60.5831 40.5,62.5C 37.2157,60.883 34.5491,58.5497 32.5,55.5 Z"/></g>
<g><path style="opacity:0.039" fill="#f1dfdd" d="M 69.5,54.5 C 70.9063,54.9731 71.573,55.9731 71.5,57.5C 70.0937,57.0269 69.427,56.0269 69.5,54.5 Z"/></g>
<g><path style="opacity:0.024" fill="#f5e5e6" d="M 107.5,54.5 C 107.573,56.0269 106.906,57.0269 105.5,57.5C 105.427,55.9731 106.094,54.9731 107.5,54.5 Z"/></g>
<g><path style="opacity:0.286" fill="#efd6d5" d="M 345.5,49.5 C 347.267,51.7916 348.267,54.4582 348.5,57.5C 346.733,55.2084 345.733,52.5418 345.5,49.5 Z"/></g>
<g><path style="opacity:1" fill="#ce3635" d="M 406.5,53.5 C 408.218,54.224 410.052,54.8906 412,55.5C 417.407,54.5268 422.907,54.1934 428.5,54.5C 428.5,55.5 428.5,56.5 428.5,57.5C 421.313,57.1755 414.313,57.5088 407.5,58.5C 406.833,58.5 406.5,58.8333 406.5,59.5C 405.833,66.0119 405.167,72.6786 404.5,79.5C 403.167,63.8333 403.167,48.1667 404.5,32.5C 405.167,39.6553 405.833,46.6553 406.5,53.5 Z"/></g>
<g><path style="opacity:0.98" fill="#cb3734" d="M 83.5,53.5 C 86.6843,55.4136 90.351,56.0803 94.5,55.5C 97.1667,55.5 99.8333,55.5 102.5,55.5C 102.5,56.5 102.5,57.5 102.5,58.5C 96.5451,57.6365 90.5451,57.3032 84.5,57.5C 80.7657,57.3227 77.0991,57.6561 73.5,58.5C 73.5,57.5 73.5,56.5 73.5,55.5C 77.6388,56.2958 80.8055,54.9625 83,51.5C 83.4643,52.0944 83.631,52.7611 83.5,53.5 Z"/></g>
<g><path style="opacity:0.982" fill="#c94743" d="M 117.5,38.5 C 118.5,38.5 119.5,38.5 120.5,38.5C 120.833,38.5 121.167,38.5 121.5,38.5C 121.334,42.8461 121.501,47.1794 122,51.5C 122.383,50.944 122.883,50.6107 123.5,50.5C 124.167,51.1667 124.833,51.8333 125.5,52.5C 125.5,52.8333 125.5,53.1667 125.5,53.5C 123.526,55.428 122.026,57.7613 121,60.5C 120.179,67.6791 120.345,74.6791 121.5,81.5C 121.672,82.4916 121.338,83.1583 120.5,83.5C 117.612,84.0102 115.279,83.3435 113.5,81.5C 115.308,80.0821 115.975,78.0821 115.5,75.5C 115.5,73.8333 115.5,72.1667 115.5,70.5C 116.833,66.8333 116.833,63.1667 115.5,59.5C 116.209,58.596 117.209,58.2627 118.5,58.5C 118.5,57.1667 118.5,55.8333 118.5,54.5C 122.838,54.3781 123.172,54.0447 119.5,53.5C 119.666,49.1539 119.499,44.8206 119,40.5C 118.802,42.3817 118.302,44.0484 117.5,45.5C 117.5,43.1667 117.5,40.8333 117.5,38.5 Z"/></g>
<g><path style="opacity:0.998" fill="#cf4d46" d="M 137.5,46.5 C 138.167,46.5 138.5,46.8333 138.5,47.5C 138.833,48.5 139.5,49.1667 140.5,49.5C 140.427,51.0269 141.094,52.0269 142.5,52.5C 142.66,54.153 143.326,55.4863 144.5,56.5C 145.833,60.5 145.833,64.5 144.5,68.5C 143.833,69.5 143.167,70.5 142.5,71.5C 140.824,72.1834 140.157,73.5168 140.5,75.5C 139.5,75.5 138.5,75.5 137.5,75.5C 137.833,74.1667 138.167,72.8333 138.5,71.5C 139.991,68.8136 140.657,65.8136 140.5,62.5C 140.713,59.4733 140.047,56.8066 138.5,54.5C 138.573,52.9731 137.906,51.9731 136.5,51.5C 135.508,51.6716 134.842,51.3382 134.5,50.5C 131.988,49.1326 129.655,49.466 127.5,51.5C 126.833,51.8333 126.167,52.1667 125.5,52.5C 124.833,51.8333 124.167,51.1667 123.5,50.5C 123.5,50.1667 123.5,49.8333 123.5,49.5C 124.5,49.1667 125.167,48.5 125.5,47.5C 129.434,46.6403 133.434,46.307 137.5,46.5 Z"/></g>
<g><path style="opacity:0.208" fill="#efd0ce" d="M 134.5,50.5 C 132.139,50.6741 129.806,51.0074 127.5,51.5C 129.655,49.466 131.988,49.1326 134.5,50.5 Z"/></g>
<g><path style="opacity:0.047" fill="#f0d9d7" d="M 266.5,56.5 C 268.027,56.427 269.027,57.0937 269.5,58.5C 267.973,58.573 266.973,57.9063 266.5,56.5 Z"/></g>
<g><path style="opacity:1" fill="#cb4944" d="M 345.5,37.5 C 345.833,37.5 346.167,37.5 346.5,37.5C 347.404,38.209 347.737,39.209 347.5,40.5C 347.12,42.698 347.787,44.3646 349.5,45.5C 349.025,48.3126 350.025,50.3126 352.5,51.5C 352.018,54.8306 353.018,57.4973 355.5,59.5C 355.402,61.5529 356.069,63.2196 357.5,64.5C 357.5,65.5 357.5,66.5 357.5,67.5C 357.762,68.9778 357.429,70.3112 356.5,71.5C 355.859,70.0065 354.859,69.0065 353.5,68.5C 346.352,67.5084 339.019,67.175 331.5,67.5C 338.087,65.5388 345.087,64.8721 352.5,65.5C 352.715,63.8212 352.048,62.8212 350.5,62.5C 350.598,60.4471 349.931,58.7804 348.5,57.5C 348.267,54.4582 347.267,51.7916 345.5,49.5C 345.834,46.509 344.834,44.1757 342.5,42.5C 342.5,41.8333 342.5,41.1667 342.5,40.5C 343.496,40.4142 344.329,40.7476 345,41.5C 345.49,40.2068 345.657,38.8734 345.5,37.5 Z"/></g>
<g><path style="opacity:0.039" fill="#efd2d2" d="M 352.5,51.5 C 354.02,53.8902 355.02,56.5568 355.5,59.5C 353.018,57.4973 352.018,54.8306 352.5,51.5 Z"/></g>
<g><path style="opacity:0.996" fill="#c03c3a" d="M 382.5,36.5 C 382.5,51.1667 382.5,65.8333 382.5,80.5C 381.167,80.5 379.833,80.5 378.5,80.5C 378.5,67.1667 378.5,53.8333 378.5,40.5C 378.833,40.5 379.167,40.5 379.5,40.5C 379.168,53.5171 379.501,66.5171 380.5,79.5C 381.499,66.8508 381.832,54.1842 381.5,41.5C 381.216,39.5853 381.549,37.9187 382.5,36.5 Z"/></g>
<g><path style="opacity:0.514" fill="#e8c6c5" d="M 173.5,53.5 C 171.833,55.8333 169.833,57.8333 167.5,59.5C 168.5,56.5 170.5,54.5 173.5,53.5 Z"/></g>
<g><path style="opacity:0.2" fill="#f1dadb" d="M 181.5,56.5 C 179.351,57.7362 177.018,58.7362 174.5,59.5C 174.833,58.5 175.5,57.8333 176.5,57.5C 178.042,56.6993 179.708,56.366 181.5,56.5 Z"/></g>
<g><path style="opacity:0.804" fill="#d7a29e" d="M 233.5,57.5 C 225.858,58.2632 218.191,58.5965 210.5,58.5C 210.5,58.1667 210.5,57.8333 210.5,57.5C 218.167,56.1667 225.833,56.1667 233.5,57.5 Z"/></g>
<g><path style="opacity:0.008" fill="#efdcdb" d="M 291.5,54.5 C 291.741,56.8984 291.074,58.8984 289.5,60.5C 289.5,59.8333 289.5,59.1667 289.5,58.5C 289.989,57.0048 290.655,55.6715 291.5,54.5 Z"/></g>
<g><path style="opacity:0.086" fill="#f4e1e2" d="M 300.5,49.5 C 302.592,52.0884 303.925,55.0884 304.5,58.5C 302.393,55.9433 301.059,52.9433 300.5,49.5 Z"/></g>
<g><path style="opacity:0.118" fill="#f5e4e4" d="M 308.5,54.5 C 309.931,55.7804 310.598,57.4471 310.5,59.5C 310.167,59.5 309.833,59.5 309.5,59.5C 308.962,57.8828 308.629,56.2161 308.5,54.5 Z"/></g>
<g><path style="opacity:0.192" fill="#efd5d5" d="M 336.5,54.5 C 336.598,56.5529 335.931,58.2196 334.5,59.5C 334.402,57.4471 335.069,55.7804 336.5,54.5 Z"/></g>
<g><path style="opacity:0.012" fill="#f8eded" d="M 71.5,57.5 C 72.1667,57.8333 72.8333,58.1667 73.5,58.5C 73.5,59.1667 73.5,59.8333 73.5,60.5C 72.0937,60.0269 71.427,59.0269 71.5,57.5 Z"/></g>
<g><path style="opacity:0.162" fill="#f5e6e6" d="M 84.5,58.5 C 89.2137,58.1734 93.8804,58.5067 98.5,59.5C 98.3764,60.1067 98.0431,60.44 97.5,60.5C 91.5,59.1667 85.5,59.1667 79.5,60.5C 78.7109,60.2172 78.0442,59.7172 77.5,59C 79.8098,58.5034 82.1432,58.3367 84.5,58.5 Z"/></g>
<g><path style="opacity:0.008" fill="#f7e9e9" d="M 105.5,57.5 C 105.262,59.4044 104.262,60.7377 102.5,61.5C 102.557,60.391 102.89,59.391 103.5,58.5C 104.167,58.1667 104.833,57.8333 105.5,57.5 Z"/></g>
<g><path style="opacity:0.953" fill="#c14947" d="M 192.5,53.5 C 193.167,62.0093 193.833,70.6759 194.5,79.5C 195.496,73.2015 195.83,66.8682 195.5,60.5C 195.833,60.5 196.167,60.5 196.5,60.5C 196.5,61.1667 196.5,61.8333 196.5,62.5C 196.5,68.8333 196.5,75.1667 196.5,81.5C 195.041,81.5674 193.708,81.2341 192.5,80.5C 192.5,76.1667 192.5,71.8333 192.5,67.5C 192.5,62.8333 192.5,58.1667 192.5,53.5 Z"/></g>
<g><path style="opacity:0.184" fill="#f6e8e8" d="M 210.5,57.5 C 210.5,57.8333 210.5,58.1667 210.5,58.5C 209.596,59.209 209.263,60.209 209.5,61.5C 208.876,61.0831 208.543,60.4164 208.5,59.5C 208.747,58.2867 209.414,57.62 210.5,57.5 Z"/></g>
<g><path style="opacity:1" fill="#d4645c" d="M 233.5,57.5 C 233.567,58.9587 233.234,60.2921 232.5,61.5C 224.833,62.8333 217.167,62.8333 209.5,61.5C 209.263,60.209 209.596,59.209 210.5,58.5C 218.191,58.5965 225.858,58.2632 233.5,57.5 Z"/></g>
<g><path style="opacity:0.022" fill="#f3dedd" d="M 250.5,57.5 C 253.228,57.1706 255.562,57.8372 257.5,59.5C 254.848,59.5905 252.515,58.9238 250.5,57.5 Z"/></g>
<g><path style="opacity:0.004" fill="#fcf6f6" d="M 269.5,58.5 C 270.833,58.5 271.5,59.1667 271.5,60.5C 270.5,60.1667 269.833,59.5 269.5,58.5 Z"/></g>
<g><path style="opacity:0.91" fill="#dfa39f" d="M 285.5,55.5 C 285.88,57.698 285.213,59.3646 283.5,60.5C 283.402,58.4471 284.069,56.7804 285.5,55.5 Z"/></g>
<g><path style="opacity:0.525" fill="#e9c2c2" d="M 114.5,49.5 C 115.357,54.0201 114.024,58.0201 110.5,61.5C 109.833,61.8333 109.167,62.1667 108.5,62.5C 110.872,58.9252 112.872,55.0918 114.5,51C 113.181,50.805 111.847,50.9717 110.5,51.5C 111.287,49.8958 112.62,49.2291 114.5,49.5 Z"/></g>
<g><path style="opacity:0.918" fill="#e3a49f" d="M 258.5,59.5 C 260.698,59.1201 262.365,59.7868 263.5,61.5C 261.447,61.5979 259.78,60.9313 258.5,59.5 Z"/></g>
<g><path style="opacity:0.235" fill="#f1d7d7" d="M 27.5,57.5 C 30.0892,58.4194 32.0892,60.086 33.5,62.5C 30.9108,61.5806 28.9108,59.914 27.5,57.5 Z"/></g>
<g><path style="opacity:1" fill="#d03532" d="M 195.5,42.5 C 195.5,48.5 195.5,54.5 195.5,60.5C 195.83,66.8682 195.496,73.2015 194.5,79.5C 193.833,70.6759 193.167,62.0093 192.5,53.5C 191.167,52.1667 191.167,50.8333 192.5,49.5C 192.917,46.8411 193.917,44.5078 195.5,42.5 Z"/></g>
<g><path style="opacity:0.02" fill="#f4e7e6" d="M 233.5,57.5 C 234.124,57.9169 234.457,58.5836 234.5,59.5C 234.253,60.7133 233.586,61.38 232.5,61.5C 233.234,60.2921 233.567,58.9587 233.5,57.5 Z"/></g>
<g><path style="opacity:0.667" fill="#e8bcbd" d="M 79.5,60.5 C 81.2624,61.2623 82.2624,62.5956 82.5,64.5C 80.7376,63.7377 79.7376,62.4044 79.5,60.5 Z"/></g>
<g><path style="opacity:0.112" fill="#f1d9d8" d="M 115.5,59.5 C 116.833,63.1667 116.833,66.8333 115.5,70.5C 115.806,67.6146 115.473,64.9479 114.5,62.5C 114.5,61.8333 114.5,61.1667 114.5,60.5C 115.167,60.5 115.5,60.1667 115.5,59.5 Z"/></g>
<g><path style="opacity:0.133" fill="#f7eae9" d="M 304.5,58.5 C 305.434,59.5676 305.768,60.901 305.5,62.5C 299.833,62.5 294.167,62.5 288.5,62.5C 288.328,61.5084 288.662,60.8417 289.5,60.5C 294.305,61.4872 299.305,61.8205 304.5,61.5C 304.5,60.5 304.5,59.5 304.5,58.5 Z"/></g>
<g><path style="opacity:0.133" fill="#f7e5e5" d="M 348.5,57.5 C 349.931,58.7804 350.598,60.4471 350.5,62.5C 344.833,62.5 339.167,62.5 333.5,62.5C 333.263,61.209 333.596,60.209 334.5,59.5C 336.571,60.8086 339.071,61.4752 342,61.5C 344.5,61.3333 347,61.1667 349.5,61C 348.663,59.9887 348.33,58.8221 348.5,57.5 Z"/></g>
<g><path style="opacity:0.033" fill="#f8eded" d="M 355.5,59.5 C 356.931,60.7804 357.598,62.4471 357.5,64.5C 356.069,63.2196 355.402,61.5529 355.5,59.5 Z"/></g>
<g><path style="opacity:0.008" fill="#f1d6d6" d="M 73.5,60.5 C 75.4456,61.0347 76.4456,62.368 76.5,64.5C 75.0256,63.5637 74.0256,62.2303 73.5,60.5 Z"/></g>
<g><path style="opacity:0.522" fill="#e7c9c7" d="M 263.5,61.5 C 265.5,61.5 266.5,62.5 266.5,64.5C 265.167,63.8333 264.167,62.8333 263.5,61.5 Z"/></g>
<g><path style="opacity:0.004" fill="#faf2f1" d="M 33.5,62.5 C 34.5,62.8333 35.1667,63.5 35.5,64.5C 34.1667,64.5 33.5,63.8333 33.5,62.5 Z"/></g>
<g><path style="opacity:1" fill="#cb4c45" d="M 102.5,55.5 C 103.404,56.209 103.737,57.209 103.5,58.5C 102.89,59.391 102.557,60.391 102.5,61.5C 99.2181,63.9208 98.8848,66.5875 101.5,69.5C 102.739,69.0576 103.739,68.3909 104.5,67.5C 105.864,65.8089 107.197,64.1423 108.5,62.5C 109.167,62.1667 109.833,61.8333 110.5,61.5C 110.281,62.675 110.614,63.675 111.5,64.5C 112.057,62.6684 113.057,61.3351 114.5,60.5C 114.5,61.1667 114.5,61.8333 114.5,62.5C 114.573,64.0269 113.906,65.0269 112.5,65.5C 110.5,66.8333 108.833,68.5 107.5,70.5C 103.781,71.3594 100.114,71.3594 96.5,70.5C 95.5655,69.4324 95.2322,68.099 95.5,66.5C 97.0739,64.8984 97.7406,62.8984 97.5,60.5C 98.0431,60.44 98.3764,60.1067 98.5,59.5C 93.8804,58.5067 89.2137,58.1734 84.5,58.5C 84.5,58.1667 84.5,57.8333 84.5,57.5C 90.5451,57.3032 96.5451,57.6365 102.5,58.5C 102.5,57.5 102.5,56.5 102.5,55.5 Z"/></g>
<g><path style="opacity:1" fill="#cf4a44" d="M 173.5,53.5 C 175.167,53.5 176.833,53.5 178.5,53.5C 179.376,53.3691 180.043,53.7025 180.5,54.5C 178.668,55.0568 177.335,56.0568 176.5,57.5C 175.5,57.8333 174.833,58.5 174.5,59.5C 173.833,59.8333 173.167,60.1667 172.5,60.5C 172.083,63.1589 171.083,65.4922 169.5,67.5C 169.068,66.2905 168.401,65.2905 167.5,64.5C 166.28,62.9504 166.28,61.2837 167.5,59.5C 169.833,57.8333 171.833,55.8333 173.5,53.5 Z"/></g>
<g><path style="opacity:0.898" fill="#dda3a1" d="M 283.5,60.5 C 283.88,62.698 283.213,64.3646 281.5,65.5C 281.402,63.4471 282.069,61.7804 283.5,60.5 Z"/></g>
<g><path style="opacity:0.914" fill="#dc9b98" d="M 328.5,60.5 C 328.843,62.4832 328.176,63.8166 326.5,64.5C 326.66,62.847 327.326,61.5137 328.5,60.5 Z"/></g>
<g><path style="opacity:0.996" fill="#c93b37" d="M 333.5,62.5 C 339.167,62.5 344.833,62.5 350.5,62.5C 352.048,62.8212 352.715,63.8212 352.5,65.5C 345.087,64.8721 338.087,65.5388 331.5,67.5C 329.206,70.3695 327.872,73.7029 327.5,77.5C 325.78,80.442 323.447,81.1087 320.5,79.5C 322.213,78.3646 322.88,76.698 322.5,74.5C 324.213,73.3646 324.88,71.698 324.5,69.5C 326.213,68.3646 326.88,66.698 326.5,64.5C 328.176,63.8166 328.843,62.4832 328.5,60.5C 329.931,59.0975 331.098,57.4308 332,55.5C 332.692,56.0253 333.192,56.6919 333.5,57.5C 332.265,59.3163 332.265,60.983 333.5,62.5 Z"/></g>
<g><path style="opacity:1" fill="#c1504d" d="M 401.5,31.5 C 403.167,31.5 404.833,31.5 406.5,31.5C 406.5,38.8333 406.5,46.1667 406.5,53.5C 405.833,46.6553 405.167,39.6553 404.5,32.5C 403.167,48.1667 403.167,63.8333 404.5,79.5C 405.167,72.6786 405.833,66.0119 406.5,59.5C 406.5,66.5 406.5,73.5 406.5,80.5C 404.833,80.5 403.167,80.5 401.5,80.5C 401.5,64.1667 401.5,47.8333 401.5,31.5 Z"/></g>
<g><path style="opacity:0.998" fill="#ce3634" d="M 433.5,59.5 C 433.5,65.8333 433.5,72.1667 433.5,78.5C 432.5,78.5 431.5,78.5 430.5,78.5C 430.171,72.4632 430.504,66.4632 431.5,60.5C 432.183,60.1373 432.85,59.8039 433.5,59.5 Z"/></g>
<g><path style="opacity:1" fill="#cd4943" d="M 285.5,55.5 C 285.833,55.5 286.167,55.5 286.5,55.5C 286.5,56.5 286.5,57.5 286.5,58.5C 287.5,58.5 288.5,58.5 289.5,58.5C 289.5,59.1667 289.5,59.8333 289.5,60.5C 288.662,60.8417 288.328,61.5084 288.5,62.5C 287.849,61.9094 287.182,61.2427 286.5,60.5C 285.526,62.7427 285.192,65.076 285.5,67.5C 284.962,69.1172 284.629,70.7839 284.5,72.5C 284.598,74.5529 283.931,76.2196 282.5,77.5C 281.596,78.209 281.263,79.209 281.5,80.5C 279.833,80.5 278.167,80.5 276.5,80.5C 276.5,79.5 276.5,78.5 276.5,77.5C 278.213,76.3646 278.88,74.698 278.5,72.5C 279.931,71.2196 280.598,69.5529 280.5,67.5C 280.328,66.5084 280.662,65.8417 281.5,65.5C 283.213,64.3646 283.88,62.698 283.5,60.5C 285.213,59.3646 285.88,57.698 285.5,55.5 Z"/></g>
<g><path style="opacity:0.979" fill="#cc3633" d="M 449.5,35.5 C 449.5,50.5 449.5,65.5 449.5,80.5C 448.167,80.5 446.833,80.5 445.5,80.5C 445.5,75.8333 445.5,71.1667 445.5,66.5C 446.222,66.0825 446.722,65.4158 447,64.5C 447.167,60.3333 447.333,56.1667 447.5,52C 447.401,46.374 447.068,41.0407 446.5,36C 447.448,35.5172 448.448,35.3505 449.5,35.5 Z"/></g>
<g><path style="opacity:0.008" fill="#faf1f1" d="M 35.5,64.5 C 36.5,64.8333 37.1667,65.5 37.5,66.5C 36.1667,66.5 35.5,65.8333 35.5,64.5 Z"/></g>
<g><path style="opacity:0.02" fill="#f1d6d7" d="M 43.5,65.5 C 45.4044,65.7376 46.7377,66.7376 47.5,68.5C 45.5956,68.2624 44.2623,67.2624 43.5,65.5 Z"/></g>
<g><path style="opacity:0.008" fill="#f9efef" d="M 76.5,64.5 C 77.5,64.8333 78.1667,65.5 78.5,66.5C 77.1667,66.5 76.5,65.8333 76.5,64.5 Z"/></g>
<g><path style="opacity:0.643" fill="#deaca9" d="M 97.5,60.5 C 97.7406,62.8984 97.0739,64.8984 95.5,66.5C 95.2594,64.1016 95.9261,62.1016 97.5,60.5 Z"/></g>
<g><path style="opacity:0.153" fill="#eed5d5" d="M 167.5,64.5 C 168.401,65.2905 169.068,66.2905 169.5,67.5C 170.11,68.391 170.443,69.391 170.5,70.5C 168.461,69.089 167.461,67.089 167.5,64.5 Z"/></g>
<g><path style="opacity:0.996" fill="#cb4441" d="M 309.5,59.5 C 309.833,59.5 310.167,59.5 310.5,59.5C 311.338,59.8417 311.672,60.5084 311.5,61.5C 311.182,64.4815 312.182,66.8148 314.5,68.5C 314.733,71.5418 315.733,74.2084 317.5,76.5C 317.5,77.8333 317.5,79.1667 317.5,80.5C 316.022,80.762 314.689,80.4287 313.5,79.5C 313.058,78.2613 312.391,77.2613 311.5,76.5C 311.34,74.847 310.674,73.5137 309.5,72.5C 309.579,71.0695 309.246,69.7362 308.5,68.5C 300.862,67.5025 293.196,67.1692 285.5,67.5C 285.192,65.076 285.526,62.7427 286.5,60.5C 287.182,61.2427 287.849,61.9094 288.5,62.5C 294.167,62.5 299.833,62.5 305.5,62.5C 306.833,61.5 308.167,60.5 309.5,59.5 Z"/></g>
<g><path style="opacity:0.576" fill="#e9c8c7" d="M 37.5,66.5 C 40.1667,67.1667 41.8333,68.8333 42.5,71.5C 40.5,70.1667 38.8333,68.5 37.5,66.5 Z"/></g>
<g><path style="opacity:0.241" fill="#eed5d5" d="M 125.5,53.5 C 121.886,62.4317 120.553,71.7651 121.5,81.5C 120.345,74.6791 120.179,67.6791 121,60.5C 122.026,57.7613 123.526,55.428 125.5,53.5 Z"/></g>
<g><path style="opacity:0.145" fill="#f1dada" d="M 174.5,59.5 C 173.677,61.4546 173.51,63.4546 174,65.5C 176.001,68.3307 178.167,70.9974 180.5,73.5C 174.576,71.23 171.909,66.8967 172.5,60.5C 173.167,60.1667 173.833,59.8333 174.5,59.5 Z"/></g>
<g><path style="opacity:0.063" fill="#efcccb" d="M 311.5,61.5 C 312.912,63.6036 313.912,65.9369 314.5,68.5C 312.182,66.8148 311.182,64.4815 311.5,61.5 Z"/></g>
<g><path style="opacity:0.016" fill="#f9f0f0" d="M 357.5,64.5 C 358.931,65.7804 359.598,67.4471 359.5,69.5C 358.833,68.8333 358.167,68.1667 357.5,67.5C 357.5,66.5 357.5,65.5 357.5,64.5 Z"/></g>
<g><path style="opacity:0.016" fill="#f9e9ec" d="M 78.5,66.5 C 79.5,66.8333 80.1667,67.5 80.5,68.5C 79.1667,68.5 78.5,67.8333 78.5,66.5 Z"/></g>
<g><path style="opacity:0.475" fill="#e4b3b3" d="M 102.5,61.5 C 102.131,63.4412 101.464,65.2745 100.5,67C 101.793,67.49 103.127,67.6567 104.5,67.5C 103.739,68.3909 102.739,69.0576 101.5,69.5C 98.8848,66.5875 99.2181,63.9208 102.5,61.5 Z"/></g>
<g><path style="opacity:0.451" fill="#ecd2d1" d="M 271.5,60.5 C 272.117,60.6107 272.617,60.944 273,61.5C 273.667,65.5 273.667,69.5 273,73.5C 272.617,74.056 272.117,74.3893 271.5,74.5C 272.726,70.367 272.726,66.367 271.5,62.5C 271.5,61.8333 271.5,61.1667 271.5,60.5 Z"/></g>
<g><path style="opacity:0.055" fill="#fbf2f2" d="M 285.5,67.5 C 293.196,67.1692 300.862,67.5025 308.5,68.5C 309.246,69.7362 309.579,71.0695 309.5,72.5C 308.609,71.7387 307.942,70.7387 307.5,69.5C 300.5,68.1667 293.5,68.1667 286.5,69.5C 286.058,70.7387 285.391,71.7387 284.5,72.5C 284.629,70.7839 284.962,69.1172 285.5,67.5 Z"/></g>
<g><path style="opacity:0.894" fill="#e3a5a2" d="M 326.5,64.5 C 326.88,66.698 326.213,68.3646 324.5,69.5C 324.402,67.4471 325.069,65.7804 326.5,64.5 Z"/></g>
<g><path style="opacity:0.054" fill="#f8eaea" d="M 331.5,67.5 C 339.019,67.175 346.352,67.5084 353.5,68.5C 354.234,69.7079 354.567,71.0413 354.5,72.5C 353.609,71.7387 352.942,70.7387 352.5,69.5C 345.5,68.1667 338.5,68.1667 331.5,69.5C 330.339,72.3584 329.006,75.025 327.5,77.5C 327.872,73.7029 329.206,70.3695 331.5,67.5 Z"/></g>
<g><path style="opacity:0.008" fill="#f2d6d6" d="M 84.5,66.5 C 86.9113,67.517 88.578,69.1837 89.5,71.5C 87.0887,70.483 85.422,68.8163 84.5,66.5 Z"/></g>
<g><path style="opacity:0.063" fill="#ecd4d4" d="M 80.5,68.5 C 81.9063,68.9731 82.573,69.9731 82.5,71.5C 81.0937,71.0269 80.427,70.0269 80.5,68.5 Z"/></g>
<g><path style="opacity:0.016" fill="#f3e5e5" d="M 112.5,65.5 C 111.833,68.1667 110.167,69.8333 107.5,70.5C 108.833,68.5 110.5,66.8333 112.5,65.5 Z"/></g>
<g><path style="opacity:0.992" fill="#c43f3b" d="M 154.5,38.5 C 155.33,46.9903 155.83,55.657 156,64.5C 156.232,65.7375 156.732,66.7375 157.5,67.5C 157.5,72.1667 157.5,76.8333 157.5,81.5C 156.5,81.5 155.5,81.5 154.5,81.5C 153.539,79.7354 153.205,77.7354 153.5,75.5C 154.495,63.3446 154.829,51.0113 154.5,38.5 Z"/></g>
<g><path style="opacity:0.999" fill="#d15b55" d="M 271.5,62.5 C 272.726,66.367 272.726,70.367 271.5,74.5C 270.5,74.8333 269.833,75.5 269.5,76.5C 268.5,76.8333 267.833,77.5 267.5,78.5C 267.158,79.3382 266.492,79.6716 265.5,79.5C 266.72,77.7163 266.72,76.0496 265.5,74.5C 266.11,73.609 266.443,72.609 266.5,71.5C 266.5,69.1667 266.5,66.8333 266.5,64.5C 268.627,65.3976 269.794,67.0643 270,69.5C 271.352,67.4062 271.852,65.0728 271.5,62.5 Z"/></g>
<g><path style="opacity:0.369" fill="#e8c5c6" d="M 47.5,68.5 C 48.9063,68.9731 49.573,69.9731 49.5,71.5C 48.0937,71.0269 47.427,70.0269 47.5,68.5 Z"/></g>
<g><path style="opacity:0.741" fill="#dda3a1" d="M 138.5,54.5 C 140.047,56.8066 140.713,59.4733 140.5,62.5C 140.657,65.8136 139.991,68.8136 138.5,71.5C 139.752,65.8267 139.752,60.16 138.5,54.5 Z"/></g>
<g><path style="opacity:1" fill="#cb4843" d="M 172.5,60.5 C 171.909,66.8967 174.576,71.23 180.5,73.5C 180.973,74.9063 181.973,75.573 183.5,75.5C 184.833,76.5 184.833,77.5 183.5,78.5C 180.549,78.7128 177.882,78.0461 175.5,76.5C 175.167,75.5 174.5,74.8333 173.5,74.5C 172.974,72.7697 171.974,71.4363 170.5,70.5C 170.443,69.391 170.11,68.391 169.5,67.5C 171.083,65.4922 172.083,63.1589 172.5,60.5 Z"/></g>
<g><path style="opacity:0.086" fill="#f7ebea" d="M 280.5,67.5 C 280.598,69.5529 279.931,71.2196 278.5,72.5C 278.402,70.4471 279.069,68.7804 280.5,67.5 Z"/></g>
<g><path style="opacity:0.02" fill="#f6e7e7" d="M 314.5,68.5 C 316.267,70.7916 317.267,73.4582 317.5,76.5C 315.733,74.2084 314.733,71.5418 314.5,68.5 Z"/></g>
<g><path style="opacity:0.998" fill="#ca4643" d="M 84.5,57.5 C 84.5,57.8333 84.5,58.1667 84.5,58.5C 82.1432,58.3367 79.8098,58.5034 77.5,59C 78.0442,59.7172 78.7109,60.2172 79.5,60.5C 79.7376,62.4044 80.7376,63.7377 82.5,64.5C 83.5,64.8333 84.1667,65.5 84.5,66.5C 85.422,68.8163 87.0887,70.483 89.5,71.5C 90.5,71.8333 91.1667,72.5 91.5,73.5C 92.2341,74.7079 92.5674,76.0413 92.5,77.5C 91.1266,77.6567 89.7932,77.49 88.5,77C 86.6298,74.9604 84.6298,73.1271 82.5,71.5C 82.573,69.9731 81.9063,68.9731 80.5,68.5C 80.1667,67.5 79.5,66.8333 78.5,66.5C 78.1667,65.5 77.5,64.8333 76.5,64.5C 76.4456,62.368 75.4456,61.0347 73.5,60.5C 73.5,59.8333 73.5,59.1667 73.5,58.5C 77.0991,57.6561 80.7657,57.3227 84.5,57.5 Z"/></g>
<g><path style="opacity:0.859" fill="#dd918d" d="M 96.5,70.5 C 100.114,71.3594 103.781,71.3594 107.5,70.5C 103.833,74.5 100.167,74.5 96.5,70.5 Z"/></g>
<g><path style="opacity:0.031" fill="#f4e1e0" d="M 144.5,68.5 C 144.88,70.698 144.213,72.3646 142.5,73.5C 142.5,72.8333 142.5,72.1667 142.5,71.5C 143.167,70.5 143.833,69.5 144.5,68.5 Z"/></g>
<g><path style="opacity:1" fill="#cf413a" d="M 61.5,64.5 C 61.7857,70.2586 61.4524,75.9252 60.5,81.5C 59.8333,82.8333 59.1667,82.8333 58.5,81.5C 57.5975,78.6085 57.2641,75.6085 57.5,72.5C 59.059,69.1317 59.8923,65.4651 60,61.5C 60.2321,62.7375 60.7321,63.7375 61.5,64.5 Z"/></g>
<g><path style="opacity:0.012" fill="#f3e4e4" d="M 82.5,71.5 C 84.6298,73.1271 86.6298,74.9604 88.5,77C 89.7932,77.49 91.1266,77.6567 92.5,77.5C 87.6158,78.6959 84.2824,76.6959 82.5,71.5 Z"/></g>
<g><path style="opacity:0.867" fill="#e3aba7" d="M 324.5,69.5 C 324.88,71.698 324.213,73.3646 322.5,74.5C 322.402,72.4471 323.069,70.7804 324.5,69.5 Z"/></g>
<g><path style="opacity:0.173" fill="#f0dcdc" d="M 407.5,58.5 C 414.833,58.5 422.167,58.5 429.5,58.5C 429.5,65.8333 429.5,73.1667 429.5,80.5C 430.833,80.5 432.167,80.5 433.5,80.5C 433.833,80.5 434.167,80.5 434.5,80.5C 434.5,80.8333 434.5,81.1667 434.5,81.5C 432.5,81.5 430.5,81.5 428.5,81.5C 428.5,74.1667 428.5,66.8333 428.5,59.5C 421.5,59.5 414.5,59.5 407.5,59.5C 407.5,66.8333 407.5,74.1667 407.5,81.5C 405.265,81.7947 403.265,81.4614 401.5,80.5C 403.167,80.5 404.833,80.5 406.5,80.5C 406.5,73.5 406.5,66.5 406.5,59.5C 406.5,58.8333 406.833,58.5 407.5,58.5 Z"/></g>
<g><path style="opacity:0.016" fill="#f2e5e4" d="M 91.5,73.5 C 94.4124,74.5783 94.7458,75.9117 92.5,77.5C 92.5674,76.0413 92.2341,74.7079 91.5,73.5 Z"/></g>
<g><path style="opacity:0.004" fill="#f9eded" d="M 170.5,70.5 C 171.974,71.4363 172.974,72.7697 173.5,74.5C 171.554,73.9653 170.554,72.632 170.5,70.5 Z"/></g>
<g><path style="opacity:0.012" fill="#f5e6e6" d="M 180.5,73.5 C 182.027,73.427 183.027,74.0937 183.5,75.5C 181.973,75.573 180.973,74.9063 180.5,73.5 Z"/></g>
<g><path style="opacity:0.004" fill="#f5dcdc" d="M 243.5,72.5 C 245.23,73.0256 246.564,74.0256 247.5,75.5C 245.368,75.4456 244.035,74.4456 243.5,72.5 Z"/></g>
<g><path style="opacity:0.435" fill="#e9c6c6" d="M 266.5,71.5 C 266.443,72.609 266.11,73.609 265.5,74.5C 264.292,75.2341 262.959,75.5674 261.5,75.5C 263.142,74.197 264.809,72.8637 266.5,71.5 Z"/></g>
<g><path style="opacity:0.102" fill="#f2dedf" d="M 309.5,72.5 C 310.674,73.5137 311.34,74.847 311.5,76.5C 309.896,75.713 309.229,74.3797 309.5,72.5 Z"/></g>
<g><path style="opacity:0.004" fill="#efd9d9" d="M 243.5,72.5 C 242.009,69.9093 239.675,68.9093 236.5,69.5C 236.491,71.3084 236.991,72.9751 238,74.5C 239.707,76.0375 241.207,77.7041 242.5,79.5C 237.409,77.6625 235.076,73.9959 235.5,68.5C 237.857,68.3367 240.19,68.5034 242.5,69C 243.337,70.0113 243.67,71.1779 243.5,72.5 Z"/></g>
<g><path style="opacity:0.094" fill="#f6e4e4" d="M 360.5,72.5 C 362.104,73.287 362.771,74.6203 362.5,76.5C 361.326,75.4863 360.66,74.153 360.5,72.5 Z"/></g>
<g><path style="opacity:0.027" fill="#f8f0f0" d="M 49.5,73.5 C 49.516,75.4841 48.516,76.4841 46.5,76.5C 45.2867,76.2528 44.62,75.5862 44.5,74.5C 46.3983,75.7345 48.065,75.4011 49.5,73.5 Z"/></g>
<g><path style="opacity:0.004" fill="#fcf7f6" d="M 173.5,74.5 C 174.5,74.8333 175.167,75.5 175.5,76.5C 174.167,76.5 173.5,75.8333 173.5,74.5 Z"/></g>
<g><path style="opacity:0.004" fill="#f9f0ef" d="M 271.5,74.5 C 271.5,75.8333 270.833,76.5 269.5,76.5C 269.833,75.5 270.5,74.8333 271.5,74.5 Z"/></g>
<g><path style="opacity:0.89" fill="#dea19e" d="M 278.5,72.5 C 278.88,74.698 278.213,76.3646 276.5,77.5C 276.402,75.4471 277.069,73.7804 278.5,72.5 Z"/></g>
<g><path style="opacity:0.282" fill="#eed2d1" d="M 354.5,72.5 C 355.931,73.7804 356.598,75.4471 356.5,77.5C 355.069,76.2196 354.402,74.5529 354.5,72.5 Z"/></g>
<g><path style="opacity:0.996" fill="#c7433e" d="M 357.5,67.5 C 358.167,68.1667 358.833,68.8333 359.5,69.5C 360.404,70.209 360.737,71.209 360.5,72.5C 360.66,74.153 361.326,75.4863 362.5,76.5C 362.5,76.8333 362.5,77.1667 362.5,77.5C 362.5,78.5 362.5,79.5 362.5,80.5C 360.833,80.5 359.167,80.5 357.5,80.5C 357.737,79.209 357.404,78.209 356.5,77.5C 356.598,75.4471 355.931,73.7804 354.5,72.5C 354.567,71.0413 354.234,69.7079 353.5,68.5C 354.859,69.0065 355.859,70.0065 356.5,71.5C 357.429,70.3112 357.762,68.9778 357.5,67.5 Z"/></g>
<g><path style="opacity:0.314" fill="#f2dbda" d="M 138.5,71.5 C 138.167,72.8333 137.833,74.1667 137.5,75.5C 136.5,76.1667 135.5,76.8333 134.5,77.5C 135.34,75.1475 136.674,73.1475 138.5,71.5 Z"/></g>
<g><path style="opacity:1" fill="#c73e3b" d="M 243.5,72.5 C 244.035,74.4456 245.368,75.4456 247.5,75.5C 248.167,76.1667 248.833,76.8333 249.5,77.5C 247.821,77.2852 246.821,77.9519 246.5,79.5C 245.167,79.5 243.833,79.5 242.5,79.5C 241.207,77.7041 239.707,76.0375 238,74.5C 236.991,72.9751 236.491,71.3084 236.5,69.5C 239.675,68.9093 242.009,69.9093 243.5,72.5 Z"/></g>
<g><path style="opacity:0.557" fill="#e0acaa" d="M 247.5,75.5 C 252.187,76.6242 256.853,76.6242 261.5,75.5C 261.082,76.2216 260.416,76.7216 259.5,77C 256.183,77.4983 252.85,77.665 249.5,77.5C 248.833,76.8333 248.167,76.1667 247.5,75.5 Z"/></g>
<g><path style="opacity:0.02" fill="#f1e0e0" d="M 140.5,76.5 C 140.573,78.0269 139.906,79.0269 138.5,79.5C 138.427,77.9731 139.094,76.9731 140.5,76.5 Z"/></g>
<g><path style="opacity:0.361" fill="#eed3d3" d="M 175.5,76.5 C 177.882,78.0461 180.549,78.7128 183.5,78.5C 180.282,80.1839 177.615,79.5172 175.5,76.5 Z"/></g>
<g><path style="opacity:0.004" fill="#f8eded" d="M 269.5,76.5 C 269.5,77.8333 268.833,78.5 267.5,78.5C 267.833,77.5 268.5,76.8333 269.5,76.5 Z"/></g>
<g><path style="opacity:0.91" fill="#e5a8a6" d="M 322.5,74.5 C 322.88,76.698 322.213,78.3646 320.5,79.5C 320.402,77.4471 321.069,75.7804 322.5,74.5 Z"/></g>
<g><path style="opacity:1" fill="#cf5f5b" d="M 142.5,71.5 C 142.5,72.1667 142.5,72.8333 142.5,73.5C 142.573,75.0269 141.906,76.0269 140.5,76.5C 139.094,76.9731 138.427,77.9731 138.5,79.5C 138.167,80.5 137.5,81.1667 136.5,81.5C 134.973,81.427 133.973,82.0937 133.5,83.5C 131.883,84.038 130.216,84.3713 128.5,84.5C 128.733,82.9382 129.4,81.6049 130.5,80.5C 131.545,79.1224 132.878,78.1224 134.5,77.5C 135.5,76.8333 136.5,76.1667 137.5,75.5C 138.5,75.5 139.5,75.5 140.5,75.5C 140.157,73.5168 140.824,72.1834 142.5,71.5 Z"/></g>
<g><path style="opacity:0.82" fill="#e1b3b3" d="M 196.5,62.5 C 197.8,68.6446 198.3,74.9779 198,81.5C 195.661,83.0779 193.828,82.7446 192.5,80.5C 193.708,81.2341 195.041,81.5674 196.5,81.5C 196.5,75.1667 196.5,68.8333 196.5,62.5 Z"/></g>
<g><path style="opacity:0.98" fill="#d04e48" d="M 265.5,74.5 C 266.72,76.0496 266.72,77.7163 265.5,79.5C 263.597,79.7959 261.93,80.4625 260.5,81.5C 256.532,82.7663 252.532,82.7663 248.5,81.5C 247.833,80.8333 247.167,80.1667 246.5,79.5C 246.821,77.9519 247.821,77.2852 249.5,77.5C 252.85,77.665 256.183,77.4983 259.5,77C 260.416,76.7216 261.082,76.2216 261.5,75.5C 262.959,75.5674 264.292,75.2341 265.5,74.5 Z"/></g>
<g><path style="opacity:0.059" fill="#fbeded" d="M 115.5,75.5 C 115.975,78.0821 115.308,80.0821 113.5,81.5C 112.833,81.5 112.167,81.5 111.5,81.5C 112.209,80.596 113.209,80.2627 114.5,80.5C 114.216,78.5853 114.549,76.9187 115.5,75.5 Z"/></g>
<g><path style="opacity:0.51" fill="#ddb0ac" d="M 242.5,79.5 C 243.833,79.5 245.167,79.5 246.5,79.5C 247.167,80.1667 247.833,80.8333 248.5,81.5C 246.102,81.7406 244.102,81.0739 242.5,79.5 Z"/></g>
<g><path style="opacity:0.031" fill="#f2dcdc" d="M 265.5,79.5 C 264.365,81.2132 262.698,81.8799 260.5,81.5C 261.93,80.4625 263.597,79.7959 265.5,79.5 Z"/></g>
<g><path style="opacity:0.279" fill="#ecd9d9" d="M 276.5,77.5 C 276.5,78.5 276.5,79.5 276.5,80.5C 278.167,80.5 279.833,80.5 281.5,80.5C 281.263,79.209 281.596,78.209 282.5,77.5C 282.5,78.8333 282.5,80.1667 282.5,81.5C 279.753,81.8134 277.086,81.48 274.5,80.5C 274.942,79.2613 275.609,78.2613 276.5,77.5 Z"/></g>
<g><path style="opacity:0.275" fill="#ebd4d4" d="M 311.5,76.5 C 312.391,77.2613 313.058,78.2613 313.5,79.5C 314.689,80.4287 316.022,80.762 317.5,80.5C 317.5,79.1667 317.5,77.8333 317.5,76.5C 318.1,77.9002 319.1,78.9002 320.5,79.5C 323.447,81.1087 325.78,80.442 327.5,77.5C 327.67,78.8221 327.337,79.9887 326.5,81C 321.798,81.8283 317.131,81.6616 312.5,80.5C 311.754,79.2638 311.421,77.9305 311.5,76.5 Z"/></g>
<g><path style="opacity:0.28" fill="#ebd6d6" d="M 356.5,77.5 C 357.404,78.209 357.737,79.209 357.5,80.5C 359.167,80.5 360.833,80.5 362.5,80.5C 362.5,79.5 362.5,78.5 362.5,77.5C 363.391,78.2613 364.058,79.2613 364.5,80.5C 361.914,81.48 359.247,81.8134 356.5,81.5C 356.5,80.1667 356.5,78.8333 356.5,77.5 Z"/></g>
<g><path style="opacity:0.027" fill="#fbf5f5" d="M 121.5,81.5 C 122.885,82.9473 122.552,83.9473 120.5,84.5C 120.5,84.1667 120.5,83.8333 120.5,83.5C 121.338,83.1583 121.672,82.4916 121.5,81.5 Z"/></g>
<g><path style="opacity:0.018" fill="#faf2f3" d="M 130.5,80.5 C 129.4,81.6049 128.733,82.9382 128.5,84.5C 127.024,82.2911 127.691,80.9577 130.5,80.5 Z"/></g>
<g><path style="opacity:0.008" fill="#faf1f1" d="M 136.5,81.5 C 136.027,82.9063 135.027,83.573 133.5,83.5C 133.973,82.0937 134.973,81.427 136.5,81.5 Z"/></g>
<g><path style="opacity:0.235" fill="#f4e5e6" d="M 133.5,83.5 C 132.121,85.5969 130.455,85.9302 128.5,84.5C 130.216,84.3713 131.883,84.038 133.5,83.5 Z"/></g>
<g><path style="opacity:0.231" fill="#f2dcdb" d="M 120.5,84.5 C 116.327,85.0175 112.327,86.3508 108.5,88.5C 109.122,86.665 110.456,85.4983 112.5,85C 115.146,84.5026 117.813,84.3359 120.5,84.5 Z"/></g>
<g><path style="opacity:0.58" fill="#eac9c8" d="M 111.5,81.5 C 107.568,84.0917 103.901,87.0917 100.5,90.5C 102.671,85.662 106.337,82.662 111.5,81.5 Z"/></g>
<g><path style="opacity:0.078" fill="#f3e0e2" d="M 108.5,88.5 C 108.167,89.5 107.5,90.1667 106.5,90.5C 106.5,89.1667 107.167,88.5 108.5,88.5 Z"/></g>
<g><path style="opacity:1" fill="#c64742" d="M 111.5,81.5 C 112.167,81.5 112.833,81.5 113.5,81.5C 115.279,83.3435 117.612,84.0102 120.5,83.5C 120.5,83.8333 120.5,84.1667 120.5,84.5C 117.813,84.3359 115.146,84.5026 112.5,85C 110.456,85.4983 109.122,86.665 108.5,88.5C 107.167,88.5 106.5,89.1667 106.5,90.5C 105.883,90.6107 105.383,90.944 105,91.5C 104.503,93.8098 104.337,96.1432 104.5,98.5C 103.876,96.1663 103.043,93.8329 102,91.5C 101.502,94.4816 101.335,97.4816 101.5,100.5C 101.167,100.5 100.833,100.5 100.5,100.5C 100.5,97.1667 100.5,93.8333 100.5,90.5C 103.901,87.0917 107.568,84.0917 111.5,81.5 Z"/></g>
<g><path style="opacity:0.455" fill="#e8d0cf" d="M 100.5,90.5 C 100.5,93.8333 100.5,97.1667 100.5,100.5C 98.0359,97.1997 98.0359,93.8664 100.5,90.5 Z"/></g>
<g><path style="opacity:0.089" fill="#f3dddd" d="M 106.5,90.5 C 103.599,98.9314 106.599,103.265 115.5,103.5C 110.322,105.414 106.655,103.747 104.5,98.5C 104.337,96.1432 104.503,93.8098 105,91.5C 105.383,90.944 105.883,90.6107 106.5,90.5 Z"/></g>
<g><path style="opacity:0.271" fill="#f1dede" d="M 126.5,98.5 C 127.568,97.5655 128.901,97.2322 130.5,97.5C 130.54,103.346 127.54,106.346 121.5,106.5C 123.273,105.108 125.273,103.941 127.5,103C 129.037,101.89 129.703,100.39 129.5,98.5C 128.5,98.5 127.5,98.5 126.5,98.5 Z"/></g>
<g><path style="opacity:1" fill="#c73f3d" d="M 104.5,98.5 C 106.655,103.747 110.322,105.414 115.5,103.5C 115.833,103.5 116.167,103.5 116.5,103.5C 118.698,103.88 120.365,103.213 121.5,101.5C 123.674,101.25 125.341,100.25 126.5,98.5C 127.5,98.5 128.5,98.5 129.5,98.5C 129.703,100.39 129.037,101.89 127.5,103C 125.273,103.941 123.273,105.108 121.5,106.5C 115.616,108.302 109.949,107.802 104.5,105C 102.859,103.871 101.859,102.371 101.5,100.5C 101.335,97.4816 101.502,94.4816 102,91.5C 103.043,93.8329 103.876,96.1663 104.5,98.5 Z"/></g>
<g><path style="opacity:0.749" fill="#e7b5b4" d="M 121.5,101.5 C 120.365,103.213 118.698,103.88 116.5,103.5C 117.78,102.069 119.447,101.402 121.5,101.5 Z"/></g>
<g><path style="opacity:0.153" fill="#f3dfdf" d="M 126.5,98.5 C 125.341,100.25 123.674,101.25 121.5,101.5C 122.659,99.7497 124.326,98.7497 126.5,98.5 Z"/></g>
<g><path style="opacity:0.01" fill="#f6eae9" d="M 100.5,100.5 C 100.833,100.5 101.167,100.5 101.5,100.5C 101.859,102.371 102.859,103.871 104.5,105C 109.949,107.802 115.616,108.302 121.5,106.5C 115.542,109.273 109.542,109.107 103.5,106C 101.393,104.736 100.393,102.903 100.5,100.5 Z"/></g>
</svg>
